  0
SECTION
  2
HEADER
  9
$ACADVER
  1
AC1003
  9
$EXTMIN
 10
0
 20
5.039370112
  9
$EXTMAX
 10
3.385826794
 20
0
  9
$INSUNITS
 70
1
  9
$INSBASE
 10
1.692913397
 20
2.519685056
999
Created with OMAX LAYOUT for Windows. (www.omax.com) 06/04/2019
  0
ENDSEC
  0
SECTION
  2
TABLES
  0
TABLE
  2
LAYER
 70
    10
  0
LAYER
  2
0
 70
     0
 62
     7
  6
CONTINUOUS
  0
LAYER
  2
1
 70
     0
 62
     7
  6
CONTINUOUS
  0
LAYER
  2
2
 70
     0
 62
     7
  6
CONTINUOUS
  0
LAYER
  2
3
 70
     0
 62
     7
  6
CONTINUOUS
  0
LAYER
  2
4
 70
     0
 62
     7
  6
CONTINUOUS
  0
LAYER
  2
5
 70
     0
 62
     7
  6
CONTINUOUS
  0
LAYER
  2
6
 70
     0
 62
     7
  6
CONTINUOUS
  0
LAYER
  2
7
 70
     0
 62
     7
  6
CONTINUOUS
  0
LAYER
  2
8
 70
     0
 62
     7
  6
CONTINUOUS
  0
LAYER
  2
9
 70
     0
 62
     7
  6
CONTINUOUS
  0
LAYER
  2
10
 70
     0
 62
     7
  6
CONTINUOUS
  0
LAYER
  2
11
 70
     0
 62
     7
  6
CONTINUOUS
  0
LAYER
  2
12
 70
     0
 62
     7
  6
CONTINUOUS
  0
LAYER
  2
13
 70
     0
 62
     7
  6
CONTINUOUS
  0
LAYER
  2
14
 70
     0
 62
     7
  6
CONTINUOUS
  0
LAYER
  2
15
 70
     0
 62
     7
  6
CONTINUOUS
  0
LAYER
  2
16
 70
     0
 62
     7
  6
CONTINUOUS
  0
LAYER
  2
17
 70
     0
 62
     7
  6
CONTINUOUS
  0
LAYER
  2
18
 70
     0
 62
     7
  6
CONTINUOUS
  0
LAYER
  2
19
 70
     0
 62
     7
  6
CONTINUOUS
  0
LAYER
  2
20
 70
     0
 62
     7
  6
CONTINUOUS
  0
LAYER
  2
21
 70
     0
 62
     7
  6
CONTINUOUS
  0
LAYER
  2
22
 70
     0
 62
     7
  6
CONTINUOUS
  0
LAYER
  2
23
 70
     0
 62
     7
  6
CONTINUOUS
  0
LAYER
  2
24
 70
     0
 62
     7
  6
CONTINUOUS
  0
LAYER
  2
25
 70
     0
 62
     7
  6
CONTINUOUS
  0
LAYER
  2
26
 70
     0
 62
     7
  6
CONTINUOUS
  0
LAYER
  2
27
 70
     0
 62
     7
  6
CONTINUOUS
  0
LAYER
  2
28
 70
     0
 62
     7
  6
CONTINUOUS
  0
LAYER
  2
29
 70
     0
 62
     7
  6
CONTINUOUS
  0
LAYER
  2
30
 70
     0
 62
     7
  6
CONTINUOUS
  0
LAYER
  2
31
 70
     0
 62
     7
  6
CONTINUOUS
  0
ENDTAB
  0
ENDSEC
  0
SECTION
  2
ENTITIES
  0
ARC
  8
3
  6
CONTINUOUS
 62
3
 10
0.118110236999996
 20
2.48031497700001
 30
0.0
 40
0.118110236999996
 50
89.9999999999998
 51
180
  0
LINE
  8
3
  6
CONTINUOUS
 62
3
 10
0.866141737999996
 20
2.598425214
 30
0.0
 11
0.118110236999996
 21
2.598425214
 31
0.0
  0
ARC
  8
3
  6
CONTINUOUS
 62
3
 10
0.866141737999997
 20
2.716535451
 30
0.0
 40
0.118110236999996
 50
269.999999999999
 51
359.999999999999
  0
LINE
  8
3
  6
CONTINUOUS
 62
3
 10
0.984251974999992
 20
4.921259875
 30
0.0
 11
0.984251974999992
 21
2.716535451
 31
0.0
  0
ARC
  8
3
  6
CONTINUOUS
 62
3
 10
1.102362212
 20
4.921259875
 30
0.0
 40
0.118110237000003
 50
89.9999999999964
 51
179.999999999996
  0
ARC
  8
3
  6
CONTINUOUS
 62
3
 10
3.267716557
 20
4.921259875
 30
0.0
 40
0.118110236999996
 50
359.999999999999
 51
89.9999999999998
  0
ARC
  8
3
  6
CONTINUOUS
 62
3
 10
3.267716557
 20
0.118110236999996
 30
0.0
 40
0.118110236999996
 50
269.999999999999
 51
359.999999999999
  0
ARC
  8
3
  6
CONTINUOUS
 62
3
 10
0.118110236999996
 20
0.118110236999995
 30
0.0
 40
0.118110236999996
 50
179.999999999999
 51
269.999999999999
  0
ARC
  8
3
  6
CONTINUOUS
 62
3
 10
0.275590553000001
 20
2.28346458200001
 30
0.0
 40
0.0649606303500008
 50
359.999999999999
 51
180
  0
ARC
  8
3
  6
CONTINUOUS
 62
3
 10
0.275590553000001
 20
2.28346458200001
 30
0.0
 40
0.0649606303500008
 50
179.999999999999
 51
359.999999999999
  0
ARC
  8
3
  6
CONTINUOUS
 62
3
 10
3.110236241
 20
2.519685056
 30
0.0
 40
0.0649606303500008
 50
359.999999999999
 51
180
  0
ARC
  8
3
  6
CONTINUOUS
 62
3
 10
3.110236241
 20
2.519685056
 30
0.0
 40
0.0649606303500008
 50
179.999999999999
 51
359.999999999999
  0
ARC
  8
3
  6
CONTINUOUS
 62
3
 10
1.456692923
 20
4.685039401
 30
0.0
 40
0.0649606303499937
 50
359.999999999999
 51
180
  0
ARC
  8
3
  6
CONTINUOUS
 62
3
 10
1.456692923
 20
4.685039401
 30
0.0
 40
0.0649606303499937
 50
179.999999999999
 51
359.999999999999
  0
ARC
  8
3
  6
CONTINUOUS
 62
3
 10
3.110236241
 20
4.685039401
 30
0.0
 40
0.0649606303500008
 50
359.999999999999
 51
180
  0
ARC
  8
3
  6
CONTINUOUS
 62
3
 10
3.110236241
 20
4.685039401
 30
0.0
 40
0.0649606303500008
 50
179.999999999999
 51
359.999999999999
  0
ARC
  8
3
  6
CONTINUOUS
 62
3
 10
3.110236241
 20
0.354330711000004
 30
0.0
 40
0.0649606303500008
 50
359.999999999999
 51
180
  0
ARC
  8
3
  6
CONTINUOUS
 62
3
 10
3.110236241
 20
0.354330711000002
 30
0.0
 40
0.0649606303500008
 50
179.999999999999
 51
359.999999999999
  0
ARC
  8
3
  6
CONTINUOUS
 62
3
 10
0.275590553000001
 20
0.354330711000004
 30
0.0
 40
0.0649606303500008
 50
359.999999999999
 51
180
  0
ARC
  8
3
  6
CONTINUOUS
 62
3
 10
0.275590553000001
 20
0.354330711000002
 30
0.0
 40
0.0649606303500008
 50
179.999999999999
 51
359.999999999999
  0
ARC
  8
3
  6
CONTINUOUS
 62
3
 10
1.692913397
 20
1.04330709350001
 30
0.0
 40
0.0797244099750003
 50
359.999999999999
 51
180
  0
ARC
  8
3
  6
CONTINUOUS
 62
3
 10
1.692913397
 20
1.0433070935
 30
0.0
 40
0.0797244099750003
 50
179.999999999999
 51
359.999999999999
  0
ARC
  8
3
  6
CONTINUOUS
 62
3
 10
1.692913397
 20
4.014763806025
 30
0.0
 40
0.0797244099750003
 50
359.999999999999
 51
180
  0
LINE
  8
3
  6
CONTINUOUS
 62
3
 10
1.613188987025
 20
4.014763806025
 30
0.0
 11
1.613188987025
 21
3.977362230975
 31
0.0
  0
ARC
  8
3
  6
CONTINUOUS
 62
3
 10
1.692913397
 20
3.977362230975
 30
0.0
 40
0.0797244099750003
 50
179.999999999999
 51
359.999999999999
  0
LINE
  8
3
  6
CONTINUOUS
 62
3
 10
1.772637806975
 20
4.014763806025
 30
0.0
 11
1.772637806975
 21
3.977362230975
 31
0.0
  0
LINE
  8
3
  6
CONTINUOUS
 62
3
 10
1.102362212
 20
5.039370112
 30
0.0
 11
3.267716557
 21
5.039370112
 31
0.0
  0
LINE
  8
3
  6
CONTINUOUS
 62
3
 10
3.385826794
 20
4.921259875
 30
0.0
 11
3.385826794
 21
0.118110236999996
 31
0.0
  0
LINE
  8
3
  6
CONTINUOUS
 62
3
 10
3.267716557
 20
0
 30
0.0
 11
0.118110236999996
 21
0
 31
0.0
  0
LINE
  8
3
  6
CONTINUOUS
 62
3
 10
0
 20
0.118110236999996
 30
0.0
 11
0
 21
2.48031497700001
 31
0.0
  0
ENDSEC
  0
EOF
