**ABCDEFGHIJKLMNOPQRSTUVWXYZabcdefghijklmnopqrstuvwxyz**************************
**PARASOLID !"#$%&'()*+,-./:;<=>?@[\]^_`{|}~0123456789**************************
**PART1;
MC=AMD64;
MC_MODEL=Intel64 Family 6 Model 45 Stepping 7, GenuineIntel;
MC_ID=unknown;
OS=Windows_NT;
OS_RELEASE=unknown;
FRU=Parasolid Version 31.0, build 203,  8- 8-2018;
APPL=SOLIDWORKS 2019-2018263;
SITE=;
USER=unknown;
FORMAT=text;
GUISE=transmit;
KEY=Cellenone Mount Rev5;
FILE=Cellenone Mount Rev5.x_t;
DATE=Thu Sep 19 16:18:58 2019;
**PART2;
SCH=SCH_3100203_31001;
USFLD_SIZE=0;
**PART3;
**END_OF_HEADER*****************************************************************
T51 : TRANSMIT FILE created by modeller version 310020323 SCH_3100203_31001_1300
6215 0 12 34 CCCCCCI4 mesh1006 0 I8 polyline1008 0 CCCCCCCDI5 owner1040 0 CCCCCC
I13 boundary_mesh1006 0 I17 boundary_polyline1008 0 CCCA16 index_map_offset0 0 1
 dA9 index_map82 0 A17 node_id_index_map82 0 A20 schema_embedding_map82 0 A5 chi
ld12 0 A14 lowest_node_id0 0 1 dA16 mesh_offset_data206 0 Z1 2905 2 3 4 0 0 0 0
 0 1e3 1e-8 0 5 0 1 0 1 1 6 7 8 9 0 0 10 11 12 0 0 0 0 0 0 0 81 255 2 2 2862 13
 1 14 0 0 0 0 15 70 11 CI9 list_type0 0 1 uI10 notransmit0 0 1 lCCCDCCDI12 finge
r_index0 0 1 dI12 finger_block1012 0 CZ3 0 4 T1 0 0 8 20 1 16 16 50 255 4 449 0
 1 17 0 0 +0 .0138 0 0 1 0 0 0 1 13 255 6 94 0 1 0 18 0 0 19 0 51 255 7 2640 0 2
0 21 0 22 +-.005325 .006825 .02675 0 0 1 .003175 1 0 0 38 12 CCCCCCCCCCCA17 inte
rsection_data204 0 Z8 2621 0 11 23 0 0 +24 7 25 26 27 28 29 255 9 2606 0 12 29 0
 -.0085 .006825 .01418782217350892 19 8 CCCCCCCA5 owner12 0 Z10 28 0 1 19 0 30 V
0 16 255 11 2616 0 ?31 0 32 8 0 0 1 18 255 12 2604 0 33 0 34 9 ?1 17 255 33 0 35
 36 37 12 38 39 0 40 +18 34 2601 0 41 12 42 29 ?1 17 41 0 43 44 45 34 46 32 0 37
 +18 42 2593 0 46 34 47 48 ?1 29 29 2603 0 34 48 9 -.0085 .006825 -.02675 29 48
 2595 0 42 49 29 -.005325 .01 -.02675 29 49 2592 0 47 50 48 -.005325 .01 .018141
83136348155 18 47 2590 0 31 42 51 49 ?1 29 50 1764 0 51 52 49 .0225 .016 -.02575
 18 51 1762 0 53 47 54 50 ?1 29 52 1761 0 54 55 50 .0225 .016 .02575 18 54 1759
 0 56 51 57 52 ?1 29 55 1738 0 57 58 52 -.0225 0 .01225 18 57 1736 0 59 54 60 55
 ?1 29 58 1735 0 60 61 55 -.0225 0 -.02575 18 60 1733 0 62 57 63 58 ?1 29 61 171
7 0 63 64 58 .0225 .01 -.02575 18 63 1715 0 65 60 66 61 ?1 29 64 1714 0 66 67 61
 .0225 .01 .02575 18 66 1712 0 68 63 69 64 ?1 29 67 1705 0 69 70 64 .01625 .0138
 .02675 18 69 1703 0 71 66 72 67 ?1 29 70 1692 0 72 73 67 .0215 .016 .02675 18 7
2 1690 0 74 69 75 70 ?1 29 73 1689 0 75 76 70 .0215 .01 .02675 18 75 1687 0 77 7
2 78 73 ?1 29 76 1686 0 78 79 73 -.004 .01 .02675 18 78 1684 0 80 75 81 76 ?1 29
 79 1673 0 81 82 76 .01625 .0138 -.01675 18 81 1671 0 83 78 84 79 ?1 29 82 1670
 0 84 85 79 -.0093 .0138 -.01675 18 84 1668 0 86 81 87 82 ?1 29 85 1657 0 87 88
 82 .01725 .0138 .0253 18 87 1655 0 89 84 90 85 ?1 29 88 1654 0 90 91 85 .01725
 .0138 .02575 18 90 1652 0 92 87 93 88 ?1 29 91 1631 0 93 94 88 .01625 .016 .026
75 18 93 1629 0 95 90 96 91 ?1 29 94 1628 0 96 97 91 -.004 .016 .02675 18 96 162
6 0 98 93 99 94 ?1 29 97 1625 0 99 100 94 .01725 .016 .02575 18 99 1623 0 101 96
 102 97 ?1 29 100 1622 0 102 103 97 .01725 .016 .0253 18 102 1620 0 104 99 105 1
00 ?1 29 103 1609 0 105 106 100 -.004 .0138 .0243 18 105 1607 0 107 102 108 103
 ?1 29 106 1606 0 108 109 103 .01625 .0138 .0243 18 108 1604 0 110 105 111 106 ?
1 29 109 1603 0 111 112 106 .01625 .016 .0243 18 111 1601 0 113 108 114 109 ?1 2
9 112 1600 0 114 115 109 -.004 .016 .0243 18 114 1598 0 116 111 117 112 ?1 29 11
5 1591 0 117 118 112 -.005 .0138 .0253 18 117 1589 0 119 114 120 115 ?1 29 118 1
583 0 120 121 115 -.005 .016 .0253 18 120 1581 0 122 117 123 118 ?1 29 121 1580
 0 123 124 118 -.005 .016 .02575 18 123 1578 0 125 120 126 121 ?1 29 124 1577 0
 126 127 121 -.005 .01 .02575 18 126 1575 0 128 123 129 124 ?1 29 127 1564 0 129
 130 124 .01725 .0138 -.02575 18 129 1562 0 131 126 132 127 ?1 29 130 1561 0 132
 133 127 .01725 .0138 -.01775 18 132 1559 0 134 129 135 130 ?1 29 133 1548 0 135
 136 130 -.0103 .0138 -.01775 18 135 1546 0 137 132 138 133 ?1 29 136 1545 0 138
 139 133 -.0103 .0138 -.02575 18 138 1543 0 140 135 141 136 ?1 29 139 1522 0 141
 142 136 -.0093 .016 -.01675 18 141 1520 0 143 138 144 139 ?1 29 142 1519 0 144
 145 139 .01625 .016 -.01675 18 144 1517 0 146 141 147 142 ?1 29 145 1516 0 147
 148 142 -.0103 .016 -.02575 18 147 1514 0 149 144 150 145 ?1 29 148 1513 0 150
 151 145 -.0103 .016 -.01775 18 150 1511 0 152 147 153 148 ?1 29 151 1510 0 153
 154 148 .01725 .016 -.01775 18 153 1508 0 155 150 156 151 ?1 29 154 1507 0 156
 157 151 .01725 .016 -.02575 18 156 1505 0 158 153 159 154 ?1 29 157 1498 0 159
 160 154 -.0213 .0138 -.02675 18 159 1496 0 161 156 162 157 ?1 29 160 1489 0 162
 163 157 -.0093 .0138 -.02675 18 162 1487 0 164 159 165 160 ?1 29 163 1480 0 165
 166 160 .01625 .0138 -.02675 18 165 1478 0 167 162 168 163 ?1 29 166 1467 0 168
 169 163 .0215 .016 -.02675 18 168 1465 0 170 165 171 166 ?1 29 169 1464 0 171 1
72 166 -.0093 .016 -.02675 18 171 1462 0 173 168 174 169 ?1 29 172 1461 0 174 17
5 169 .01625 .016 -.02675 18 174 1459 0 176 171 177 172 ?1 29 175 1458 0 177 178
 172 -.0215 0 -.02675 18 177 1456 0 179 174 180 175 ?1 29 178 1455 0 180 181 175
 .0215 .01 -.02675 18 180 1453 0 182 177 183 178 ?1 29 181 1440 0 183 184 178 -.
0203 .0138 -.02575 18 183 1438 0 185 180 186 181 ?1 29 184 1437 0 186 187 181 -.
0203 .0138 .01225 18 186 1435 0 188 183 189 184 ?1 29 187 1414 0 189 190 184 -.0
225 .016 .01225 18 189 1412 0 191 186 192 187 ?1 29 190 1411 0 192 193 187 -.022
5 .016 -.02575 18 192 1409 0 194 189 195 190 ?1 29 193 1408 0 195 196 190 -.0215
 .016 -.02675 18 195 1406 0 197 192 198 193 ?1 29 196 1405 0 198 199 193 -.0213
 .016 -.02675 18 198 1403 0 200 195 201 196 ?1 29 199 1402 0 201 202 196 -.0203
 .016 .01225 18 201 1400 0 203 198 204 199 ?1 29 202 1399 0 204 205 199 -.0203 .
016 -.02575 18 204 1397 0 206 201 207 202 ?1 29 205 1390 0 207 208 202 -.0213 .0
138 .01325 18 207 1388 0 209 204 210 205 ?1 29 208 1382 0 210 211 205 -.0215 0 .
01325 18 210 1380 0 212 207 213 208 ?1 29 211 1379 0 213 214 208 -.0215 .016 .01
325 18 213 1377 0 215 210 216 211 ?1 29 214 1376 0 216 217 211 -.0213 .016 .0132
5 18 216 1374 0 218 213 219 214 ?1 29 217 461 0 219 220 214 -.005 .0138 .02025 1
8 219 459 0 221 216 222 217 ?1 29 220 272 0 222 223 217 -.012 0 .01325 18 222 21
5 0 224 219 225 220 ?1 29 223 636 0 225 226 220 -.012 .0138 .01325 18 225 554 0
 227 222 228 223 ?1 29 226 1102 0 228 229 223 .02075 .0138 -.02675 18 228 1003 0
 230 225 231 226 ?1 29 229 1104 0 231 232 226 .02075 .0138 .02675 18 231 1000 0
 233 228 234 229 ?1 29 232 1106 0 234 235 229 .02075 .016 -.02675 18 234 999 0 2
36 231 237 232 ?1 29 235 1107 0 237 238 232 .02075 .016 .02675 18 237 1009 0 239
 234 240 235 ?1 29 238 1322 0 240 241 235 -.005 .01 .02025 18 240 1248 0 242 237
 243 238 ?1 29 241 1325 0 243 244 238 -.0085 0 .01418782217350892 18 243 1256 0
 36 240 245 241 ?1 29 244 1330 0 245 0 241 -.0085 0 -.02675 18 245 1252 0 246 24
3 0 244 ?1 17 246 0 35 37 36 245 247 248 0 44 +15 255 35 1263 0 37 249 0 17 37 0
 35 33 246 34 44 250 0 38 +17 36 0 35 246 33 243 40 251 0 247 -17 247 0 252 253
 254 243 246 248 0 255 -16 248 1214 0 ?246 256 257 258 0 0 1 17 44 0 43 259 41 2
45 37 250 0 254 -15 43 918 0 260 261 0 17 259 0 43 197 44 177 254 262 0 263 +16
 250 1240 0 ?37 264 0 265 0 0 1 17 254 0 252 247 179 245 259 262 0 0 -15 252 44
 0 266 267 0 17 179 0 252 254 268 177 62 269 0 259 +16 262 1164 0 ?259 270 271 2
72 0 0 1 16 270 1734 0 ?273 274 262 275 0 0 1 16 271 1381 0 ?224 262 276 277 0 0
 1 30 255 272 68 0 262 278 275 0 +-.0225 0 -.02675 -1 0 0 30 278 14 0 279 280 27
2 0 +-.0225 .016 .02675 1 0 0 30 275 67 0 270 272 281 0 +-.0225 0 -.02675 129698
9514749014e-31 0 1 31 255 281 453 0 282 275 283 0 --.0156 .0138 .00825 0 1 0 0 0
 1 .00325 16 282 544 0 ?284 285 286 281 0 0 1 30 283 1157 0 287 281 288 0 +-.005
 .01 .02675 1334402673828312e-31 0 1 16 287 1155 0 ?289 290 279 283 0 0 1 30 288
 1385 0 290 283 291 0 --.0215 -.02210203610530035 .01325 0 1 0 16 290 1383 0 ?21
2 292 287 288 0 0 1 30 291 1394 0 292 288 293 0 +-.0213 -.02210203610530035 .013
25 0 1 0 16 292 1392 0 ?294 295 290 291 0 0 1 31 293 1417 0 295 291 296 0 +-.021
5 .016 -.02575 0 1 0 0 0 1 .001 16 295 1415 0 ?194 297 292 293 0 0 1 31 296 1422
 0 297 293 298 0 +-.0215 .016 .01225 0 1 0 0 0 1 .001 16 297 1420 0 ?215 299 295
 296 0 0 1 31 298 1427 0 299 296 300 0 +-.0213 .016 -.02575 0 1 0 0 0 1 .001 16
 299 1425 0 ?200 301 297 298 0 0 1 31 300 1432 0 301 298 302 0 +-.0213 .016 .012
25 0 1 0 0 0 1 .001 16 301 1430 0 ?203 303 299 300 0 0 1 30 302 1443 0 303 300 3
04 0 +-.0203 -.0580534667354156 -.02575 0 1 0 16 303 1441 0 ?305 306 301 302 0 0
 1 30 304 1449 0 306 302 307 0 --.0203 -.0580534667354156 .01225 0 1 0 16 306 14
47 0 ?188 308 303 304 0 0 1 30 307 1470 0 308 304 309 0 +.0215 .016 -.02675 0 -1
 0 16 308 1468 0 ?310 311 306 307 0 0 1 30 309 1475 0 311 307 312 0 --.0215 .016
 -.02675 0 -1 0 16 311 1473 0 ?197 313 308 309 0 0 1 30 312 1484 0 313 309 314 0
 -.01625 .016 -.02675 0 1 0 16 313 1482 0 ?315 316 311 312 0 0 1 30 314 1493 0 3
16 312 317 0 +-.0093 .016 -.02675 0 1 0 16 316 1491 0 ?318 319 313 314 0 0 1 30
 317 1502 0 319 314 320 0 --.0213 .016 -.02675 0 1 0 16 319 1500 0 ?321 322 316
 317 0 0 1 31 320 1525 0 322 317 323 0 +-.0093 .016 -.01775 0 1 0 0 0 1 .001 16
 322 1523 0 ?143 324 319 320 0 0 1 31 323 1530 0 324 320 325 0 +.01625 .016 -.01
775 0 1 0 0 0 1 .001 16 324 1528 0 ?155 326 322 323 0 0 1 31 325 1535 0 326 323
 327 0 +.01625 .016 -.02575 0 1 0 0 0 1 .001 16 326 1533 0 ?176 328 324 325 0 0
 1 31 327 1540 0 328 325 329 0 +-.0093 .016 -.02575 0 1 0 0 0 1 .001 16 328 1538
 0 ?149 330 326 327 0 0 1 30 329 1551 0 330 327 331 0 +-.0103 -.0003421356237309
49 -.01775 0 1 0 16 330 1549 0 ?332 333 328 329 0 0 1 30 331 1556 0 333 329 334
 0 --.0103 -.000342135623730949 -.02575 0 1 0 16 333 1554 0 ?140 335 330 331 0 0
 1 30 334 1567 0 335 331 336 0 -.01725 -.0398143637470408 -.01775 0 1 0 16 335 1
565 0 ?134 337 333 334 0 0 1 30 336 1572 0 337 334 338 0 +.01725 -.0398143637470
408 -.02575 0 1 0 16 337 1570 0 ?339 340 335 336 0 0 1 30 338 1586 0 340 336 341
 0 +-.005 -.02210203610530035 .02575 0 1 0 16 340 1584 0 ?342 343 337 338 0 0 1
 30 341 1595 0 343 338 344 0 +-.005 -.02210203610530035 .0253 0 -1 0 16 343 1593
 0 ?345 346 340 341 0 0 1 30 344 1612 0 346 341 347 0 +.01625 -.0580534667354156
 .0243 0 -1 0 16 346 1610 0 ?348 349 343 344 0 0 1 30 347 1617 0 349 344 350 0 -
-.004 -.0580534667354156 .0243 0 -1 0 16 349 1615 0 ?116 351 346 347 0 0 1 31 35
0 1634 0 351 347 352 0 +-.004 .016 .02575 0 1 0 0 0 1 .001 16 351 1632 0 ?98 353
 349 350 0 0 1 31 352 1639 0 353 350 354 0 +.01625 .016 .02575 0 1 0 0 0 1 .001
 16 353 1637 0 ?101 355 351 352 0 0 1 31 354 1644 0 355 352 356 0 +.01625 .016 .
0253 0 1 0 0 0 1 .001 16 355 1642 0 ?113 357 353 354 0 0 1 31 356 1649 0 357 354
 358 0 +-.004 .016 .0253 0 1 0 0 0 1 .001 16 357 1647 0 ?122 359 355 356 0 0 1 3
0 358 1660 0 359 356 360 0 -.01725 -.0398143637470408 .02575 0 1 0 16 359 1658 0
 ?92 361 357 358 0 0 1 30 360 1665 0 361 358 362 0 -.01725 -.0398143637470408 .0
253 0 -1 0 16 361 1663 0 ?104 363 359 360 0 0 1 30 362 1676 0 363 360 364 0 --.0
093 -.0580534667354156 -.01675 0 1 0 16 363 1674 0 ?86 365 361 362 0 0 1 30 364
 1681 0 365 362 366 0 +.01625 -.0580534667354156 -.01675 0 1 0 16 365 1679 0 ?36
7 368 363 364 0 0 1 30 366 1695 0 368 364 369 0 -.0215 .016 .02675 0 -1 0 16 368
 1693 0 ?74 370 365 366 0 0 1 30 369 1700 0 370 366 371 0 --.004 .016 .02675 0 1
 0 16 370 1698 0 ?80 372 368 369 0 0 1 30 371 1709 0 372 369 373 0 +.01625 .016
 .02675 0 1 0 16 372 1707 0 ?374 375 370 371 0 0 1 31 373 1720 0 375 371 376 0 -
.0215 .01 .02575 0 1 0 0 0 1 .001 16 375 1718 0 ?77 377 372 373 0 0 1 31 376 172
5 0 377 373 378 0 -.0215 .01 -.02575 0 1 0 0 0 1 .001 16 377 1723 0 ?65 379 375
 376 0 0 1 31 378 1730 0 379 376 380 0 --.004 .01 .02575 0 1 0 0 0 1 .001 16 379
 1728 0 ?128 381 377 378 0 0 1 30 380 1741 0 381 378 382 0 +-.0225 .016 -.02575
 0 -1 0 16 381 1739 0 ?383 384 379 380 0 0 1 30 382 1746 0 384 380 385 0 +-.0225
 .016 .01225 0 1 0 16 384 1744 0 ?386 269 381 382 0 0 1 31 385 1751 0 269 382 38
7 0 --.0215 0 -.02575 0 1 0 0 0 1 .001 16 269 1749 0 ?179 388 384 385 0 0 1 31 3
87 1756 0 388 385 389 0 --.0215 0 .01225 0 1 0 0 0 1 .001 16 388 1754 0 ?59 390
 269 387 0 0 1 30 389 1767 0 390 387 391 0 +.0225 .016 .02575 0 -1 0 16 390 1765
 0 ?392 393 388 389 0 0 1 30 391 1772 0 393 389 394 0 -.0225 .016 -.02575 0 -1 0
 16 393 1770 0 ?53 395 390 391 0 0 1 31 394 1777 0 395 391 396 0 +.0215 .016 .02
575 0 1 0 0 0 1 .001 16 395 1775 0 ?56 397 393 394 0 0 1 31 396 1782 0 397 394 3
98 0 +.0215 .016 -.02575 0 1 0 0 0 1 .001 16 397 1780 0 ?170 399 395 396 0 0 1 3
1 398 2163 0 399 396 400 0 --.0213 .0138 .01225 0 1 0 0 0 1 .001 16 399 1785 0 ?
401 402 397 398 0 0 1 31 400 2164 0 402 398 403 0 --.0213 .0138 -.02575 0 1 0 0
 0 1 .001 16 402 1791 0 ?185 404 399 400 0 0 1 31 403 2165 0 404 400 405 0 --.00
93 .0138 -.02575 0 1 0 0 0 1 .001 16 404 1797 0 ?406 407 402 403 0 0 1 31 405 21
66 0 407 403 408 0 -.01625 .0138 -.02575 0 1 0 0 0 1 .001 16 407 1803 0 ?131 409
 404 405 0 0 1 31 408 2167 0 409 405 410 0 --.004 .0138 .0253 0 1 0 0 0 1 .001 1
6 409 1809 0 ?107 411 407 408 0 0 1 31 410 2168 0 411 408 412 0 -.01625 .0138 .0
253 0 1 0 0 0 1 .001 16 411 1815 0 ?89 413 409 410 0 0 1 31 412 2169 0 413 410 4
14 0 -.01625 .0138 -.01775 0 1 0 0 0 1 .001 16 413 1821 0 ?83 415 411 412 0 0 1
 31 414 2170 0 415 412 416 0 --.0093 .0138 -.01775 0 1 0 0 0 1 .001 16 415 1827
 0 ?137 417 413 414 0 0 1 31 416 2171 0 417 414 418 0 -.01625 .0138 .02575 0 1 0
 0 0 1 .001 16 417 1833 0 ?419 420 415 416 0 0 1 30 418 2598 0 420 416 421 0 +-.
005325 .01 -.02675 0 0 -1 16 420 2596 0 ?422 39 417 418 0 0 1 30 421 2609 0 39 4
18 23 0 --.0085 .006825 .01418782217350892 0 0 -1 16 39 2607 0 ?33 32 420 421 0
 0 1 31 23 2620 0 32 421 8 0 +-.005325 .006825 -.02675 0 0 1 1 0 0 .003175 16 32
 2612 0 ?41 11 39 23 0 0 1 17 422 0 423 182 424 42 425 420 0 45 +15 423 1267 0 4
24 426 0 17 182 0 423 65 422 180 45 264 0 427 +17 424 0 423 422 428 47 242 429 0
 425 -17 425 0 430 431 46 47 422 420 0 0 -17 45 0 43 41 310 42 182 264 0 0 -17 3
10 0 43 45 432 180 433 308 0 0 +16 264 2594 0 ?182 257 250 434 0 0 1 16 257 1685
 0 ?435 248 264 436 0 0 1 30 434 1314 0 264 265 437 0 +.0225 .01 -.02675 1 0 0 3
0 265 1315 0 250 436 434 0 +-.0085 0 -.02675 0 1 0 30 437 1313 0 256 434 258 0 +
.0225 .01 .02675 0 0 -1 16 256 1713 0 ?438 429 248 437 0 0 1 30 258 1311 0 248 4
37 439 0 +-.0085 0 .02675 0 0 -1 31 439 1306 0 429 258 440 0 --.012 .01 .02025 0
 1 0 0 0 1 .007 16 429 2591 0 ?242 251 256 439 0 0 1 30 440 1305 0 251 439 441 0
 +-.0085 -.02210203610530035 .01418782217350892 0 1 0 16 251 1204 0 ?40 442 429
 440 0 0 1 30 441 1091 0 443 440 444 0 +.01725 .0138 -.02675 1 0 0 16 443 980 0
 ?445 446 447 441 0 0 1 30 444 1090 0 448 441 449 0 +.01725 .0138 -.02675 -12969
89514749014e-31 0 -1 16 448 1653 0 ?450 451 446 444 446 446 1 30 449 1089 0 442
 444 452 0 +.01725 .016 -.02675 1296989514749014e-31 0 1 16 442 1621 0 ?453 454
 251 449 454 454 1 30 452 1084 0 447 449 455 0 +.02075 -.0398143637470408 -.0267
5 0 1 0 16 447 955 0 ?456 443 457 452 0 0 1 30 455 1083 0 457 452 458 0 +.02075
 -.0398143637470408 .02675 0 1 0 16 457 983 0 ?459 447 454 455 0 0 1 30 458 1081
 0 451 455 460 0 +.01725 .0138 .02675 -1 0 0 16 451 977 0 ?71 461 448 458 0 0 1
 30 460 820 0 462 458 463 0 +-.0103 .0138 -.01675 0 0 1 16 462 1544 0 ?464 465 4
61 460 0 0 1 30 463 819 0 465 460 466 0 +-.0103 .0138 -.02675 1 0 0 16 465 749 0
 ?164 467 462 463 0 0 1 30 466 815 0 461 463 468 0 +-.0103 .016 -.01675 0 0 -1 1
6 461 1512 0 ?469 462 451 466 0 0 1 31 468 809 0 467 466 470 0 --.0156 .0138 -.0
2175 0 1 0 0 0 1 .00325 16 467 757 0 ?471 472 465 468 0 0 1 30 470 631 0 473 468
 474 0 +-.0203 .0138 -.01675 -845175871365071e-31 0 -1 16 473 1436 0 ?475 476 47
7 470 0 0 1 30 474 630 0 476 470 478 0 +-.0203 .0138 .0243 -1 0 0 16 476 1605 0
 ?479 480 473 474 0 0 1 30 478 629 0 480 474 481 0 +.02075 .0138 -.01675 2535527
61409521e-30 0 1 16 480 534 0 ?233 286 476 478 0 0 1 30 481 628 0 472 478 482 0
 +.02075 .016 -.01675 -253552761409521e-30 0 -1 16 472 520 0 ?483 484 467 481 0
 0 1 30 482 627 0 484 481 485 0 +-.0203 .016 -.01675 -1 0 0 16 484 1518 0 ?486 4
87 472 482 0 0 1 30 485 626 0 487 482 488 0 +-.0203 .016 -.01675 845175871365071
e-31 0 1 16 487 1398 0 ?489 477 484 485 0 0 1 30 488 625 0 477 485 490 0 +-.0203
 .016 .0243 1 0 0 16 477 1599 0 ?491 473 487 488 0 0 1 30 490 620 0 286 488 492
 0 +-.0203 .0138 -.01675 1 0 0 16 286 1669 0 ?493 282 480 490 0 0 1 30 492 619 0
 285 490 494 0 +-.005 .0138 .02675 1334402673828312e-31 0 1 16 285 539 0 ?119 49
5 282 492 0 0 1 31 494 618 0 495 492 496 0 --.012 .0138 .02025 0 1 0 0 0 1 .007
 16 495 538 0 ?497 498 285 494 0 0 1 30 496 617 0 498 494 499 0 +-.012 .0138 .01
325 1 0 -1652117596168385e-31 16 498 537 0 ?227 500 495 496 0 0 1 31 499 418 0 5
00 496 501 0 +-.0156 .008 -.02175 0 1 0 0 0 1 .00325 16 500 385 0 ?502 503 498 4
99 0 0 1 31 501 417 0 503 499 504 0 +-.0156 .008 -.02175 0 1 0 0 0 1 .0017 16 50
3 384 0 ?505 506 500 501 0 0 1 31 504 416 0 506 501 507 0 +-.0156 0 -.02175 0 1
 0 0 0 1 .0017 16 506 383 0 ?508 509 503 504 0 0 1 31 507 360 0 509 504 510 0 +-
.0156 .008 .00825 0 1 0 0 0 1 .00325 16 509 327 0 ?511 512 506 507 0 0 1 31 510
 359 0 512 507 513 0 +-.0156 .008 .00825 0 1 0 0 0 1 .0017 16 512 326 0 ?514 515
 509 510 0 0 1 31 513 358 0 515 510 516 0 +-.0156 0 .00825 0 1 0 0 0 1 .0017 16
 515 325 0 ?517 518 512 513 0 0 1 31 516 269 0 276 513 277 0 --.012 0 .02025 0 1
 0 0 0 1 .007 16 276 206 0 ?255 271 519 516 0 0 1 30 277 268 0 271 516 520 0 +-.
012 0 .01325 1 0 -1652117596168385e-31 30 520 267 0 518 277 521 0 +-.012 .016 .0
1325 -1 0 1652117596168385e-31 16 518 1375 0 ?522 523 515 520 0 0 1 30 521 264 0
 523 520 524 0 +-.005 .016 .02675 -1334402673828312e-31 0 -1 16 523 1579 0 ?525
 526 518 521 0 0 1 30 524 262 0 519 521 527 0 +-.012 -.02210203610530035 .01325
 0 1 0 16 519 186 0 ?528 276 526 524 0 0 1 30 527 261 0 526 524 529 0 +-.005 -.0
2210203610530035 .02025 0 1 0 16 526 1150 0 ?221 519 523 527 0 0 1 30 529 5 0 27
4 527 530 0 +.0225 .016 -.02675 -194548427212352e-30 0 -1 16 274 1760 0 ?531 532
 270 529 0 0 1 30 530 8 0 533 529 280 0 +-.0225 .016 -.02675 -1 0 0 16 533 1466
 0 ?236 534 535 530 535 532 1 30 280 11 0 534 530 278 0 +-.0225 .016 -.02675 129
6989514749014e-31 0 1 16 534 1410 0 ?536 537 533 280 0 0 1 17 536 0 538 215 194
 189 539 534 0 0 +16 537 895 0 ?540 279 534 278 279 279 1 17 540 0 541 56 239 72
 542 537 0 543 +16 279 1627 0 ?544 287 537 278 537 537 1 17 544 0 545 101 98 93
 546 279 0 0 +15 545 941 0 547 18 0 17 101 0 545 548 544 99 95 353 0 453 +17 98
 0 545 544 549 96 125 351 0 546 +17 546 0 550 80 374 96 544 279 0 551 -15 550 78
 0 71 552 0 17 80 0 550 435 546 78 551 370 0 553 +17 374 0 550 546 71 93 554 372
 0 544 +17 551 0 555 125 556 96 80 370 0 0 -15 555 2426 0 556 557 0 17 125 0 555
 558 551 123 98 351 0 342 -17 556 0 555 551 558 78 128 379 0 0 -17 558 0 555 556
 125 126 342 340 0 0 -17 128 0 423 428 553 126 556 379 0 289 +17 428 0 423 424 1
28 240 289 287 0 559 -17 553 0 423 128 77 78 435 257 0 556 -17 289 0 560 342 559
 126 428 287 0 558 +15 560 231 0 525 561 0 17 342 0 560 525 289 123 558 340 0 54
9 +17 559 0 560 289 562 240 221 526 0 0 -17 562 0 560 559 345 219 119 285 0 0 -1
7 221 0 563 564 242 219 559 526 0 497 +15 563 474 0 40 565 0 17 564 0 563 566 22
1 225 497 495 0 528 -17 242 0 563 221 31 240 424 429 0 428 +17 497 0 567 119 227
 219 564 495 0 562 +15 567 879 0 568 569 570 17 119 0 567 107 497 117 562 285 0
 571 +17 227 0 567 497 401 225 209 498 0 564 +17 401 0 567 227 572 207 573 399 0
 574 +17 209 0 575 294 528 207 227 498 0 401 -15 575 223 0 209 576 0 17 294 0 57
5 522 209 216 574 292 0 577 +17 528 0 575 209 224 225 566 519 0 0 +17 224 0 575
 528 212 222 266 271 0 566 +17 566 0 563 255 564 222 528 519 0 253 -17 255 0 563
 40 566 243 253 276 0 0 +17 253 0 252 266 247 222 255 276 0 0 -17 266 0 252 59 2
53 210 224 271 0 578 -17 59 0 252 268 266 57 578 388 0 273 +17 578 0 579 580 581
 210 59 388 0 0 -15 579 2447 0 578 582 0 17 580 0 579 191 578 213 212 290 0 0 -1
7 581 0 579 578 191 57 386 384 0 0 -17 191 0 579 581 580 189 215 297 0 386 -17 3
86 0 583 539 273 189 581 384 0 536 +15 583 80 0 273 584 0 17 539 0 583 383 386 1
92 536 534 0 585 -17 273 0 583 386 383 57 268 270 0 581 +17 383 0 583 273 539 60
 585 381 0 268 +17 268 0 252 179 59 60 273 270 0 0 -17 585 0 586 587 62 192 383
 381 0 0 -15 586 2468 0 587 588 0 17 587 0 586 263 585 195 194 295 0 0 -17 62 0
 586 585 263 60 179 269 0 383 -17 263 0 586 62 587 177 197 311 0 0 -17 197 0 43
 260 259 195 263 311 0 589 +17 260 0 43 321 197 198 589 532 0 590 -17 589 0 538
 194 200 195 260 532 0 587 +15 538 712 0 577 591 0 17 194 0 538 536 589 192 587
 295 0 539 +17 200 0 538 589 592 198 206 299 0 260 +16 532 1404 0 ?589 535 274 5
30 533 535 1 16 535 1460 0 ?593 533 532 530 532 533 1 17 593 0 594 149 176 171 5
95 535 0 0 +15 594 946 0 593 596 0 17 149 0 594 597 593 147 173 328 0 469 +17 17
6 0 594 593 598 174 158 326 0 595 +17 595 0 43 315 318 174 593 535 0 599 -17 315
 0 43 445 595 165 599 313 0 600 +17 318 0 43 595 164 171 601 316 0 593 +17 599 0
 602 158 600 174 315 313 0 0 -15 602 2300 0 600 603 0 17 158 0 602 604 599 156 1
76 326 0 339 -17 600 0 602 599 604 165 131 407 0 0 -17 604 0 602 600 158 129 339
 337 0 0 -17 131 0 567 605 167 129 600 407 0 606 +17 605 0 567 83 131 132 606 44
6 0 607 -17 167 0 567 131 230 165 445 443 0 315 -17 606 0 608 339 134 129 605 44
6 0 604 +15 608 1017 0 606 609 0 17 339 0 608 610 606 156 604 337 0 598 +17 134
 0 608 606 610 132 611 335 0 605 +16 446 1560 0 ?606 448 443 444 448 448 1 17 61
0 0 608 134 339 153 598 454 0 611 +17 611 0 612 146 607 153 134 335 0 0 -15 612
 2363 0 607 613 0 17 146 0 612 614 611 144 155 324 0 367 -17 607 0 612 611 614 1
32 83 413 0 0 -17 614 0 612 607 146 81 367 365 0 0 -17 83 0 567 615 605 81 607 4
13 0 493 +17 615 0 567 137 83 84 493 286 0 616 -17 493 0 617 367 86 81 615 286 0
 614 +15 617 598 0 493 618 0 17 367 0 617 486 493 144 614 365 0 619 +17 86 0 617
 493 486 84 620 363 0 615 +17 486 0 617 86 367 141 619 484 0 620 +17 620 0 621 1
52 616 141 86 363 0 0 -15 621 2384 0 616 622 0 17 152 0 621 623 620 150 143 322
 0 332 -17 616 0 621 620 623 84 137 415 0 0 -17 623 0 621 616 152 135 332 330 0
 0 -17 137 0 567 624 615 135 616 415 0 464 +17 624 0 567 406 137 138 464 462 0 6
25 -17 464 0 626 332 140 135 624 462 0 623 +15 626 783 0 469 627 0 17 332 0 626
 469 464 150 623 330 0 597 +17 140 0 626 464 469 138 628 333 0 624 +17 469 0 626
 140 332 147 597 461 0 628 +17 628 0 629 173 625 147 140 333 0 0 -15 629 2279 0
 625 630 0 17 173 0 629 601 628 171 149 328 0 318 -17 625 0 629 628 601 138 406
 404 0 0 -17 601 0 629 625 173 162 318 316 0 0 -17 406 0 567 161 624 162 625 404
 0 601 +17 161 0 567 185 406 159 164 465 0 321 -17 185 0 567 572 161 183 631 402
 0 475 +17 164 0 43 318 321 162 161 465 0 406 +17 321 0 43 164 260 159 590 319 0
 631 +17 590 0 632 206 631 198 321 319 0 0 -17 631 0 632 590 633 159 185 402 0 0
 -15 632 2258 0 631 634 0 17 633 0 632 631 206 183 305 303 0 0 -17 206 0 632 633
 590 204 200 299 0 305 -17 305 0 635 489 475 204 633 303 0 592 +15 635 564 0 489
 636 0 17 489 0 635 188 305 201 592 487 0 637 +17 475 0 635 305 188 183 572 473
 0 633 +17 592 0 538 200 203 204 489 487 0 0 -17 203 0 538 592 577 201 218 301 0
 489 +17 577 0 538 203 215 216 522 518 0 0 -17 218 0 638 574 637 216 203 301 0 2
94 -15 638 2237 0 573 639 0 17 574 0 638 573 218 207 294 292 0 0 -17 637 0 638 2
18 573 201 188 306 0 0 -17 573 0 638 637 574 186 401 399 0 0 -17 188 0 635 475 4
89 186 637 306 0 572 +17 572 0 567 401 185 186 475 473 0 573 -14 255 639 2236 64
0 ?634 426 638 6 641 +0 0 634 426 30 81 1 640 2863 642 639 643 0 0 644 645 14 63
4 2257 644 ?630 639 632 6 646 +0 0 630 639 30 14 426 1264 647 ?639 249 423 6 648
 -0 0 639 249 30 51 641 2248 0 639 649 646 0 +-.0213 -.02210203610530035 .01225
 0 1 0 .001 0 0 1 13 30 29 0 0 0 0 0 0 10 18 14 18 938 650 ?596 0 545 6 651 +596
 591 596 0 30 81 1 650 2866 642 18 652 0 647 653 654 14 596 934 653 ?655 18 594
 6 651 +655 18 655 18 30 50 651 2 0 591 656 657 0 +0 .016 0 0 1 0 0 0 1 14 591 1
 658 ?267 552 538 6 651 +18 655 267 552 30 81 1 658 2868 642 591 659 0 653 660 6
61 14 267 43 660 ?576 591 662 6 657 -0 0 576 591 30 14 552 79 663 ?591 584 550 6
 664 -0 0 591 584 30 14 655 714 665 ?666 596 541 6 651 +591 596 666 596 30 81 1
 665 2871 642 655 667 0 663 668 669 14 666 703 668 ?565 655 670 6 671 -0 0 565 6
55 30 15 541 937 0 531 655 0 17 531 0 541 170 56 51 672 274 0 673 +17 170 0 541
 236 531 168 673 397 0 432 +17 56 0 541 531 540 54 543 395 0 672 +17 672 0 674 3
92 53 54 531 274 0 675 -17 673 0 676 677 433 51 170 397 0 0 -15 676 2489 0 673 6
78 0 17 677 0 676 427 673 63 53 393 0 0 -17 433 0 676 673 427 168 310 308 0 0 -1
7 427 0 676 433 677 180 65 377 0 310 -17 65 0 423 679 182 63 427 377 0 438 +17 6
79 0 423 77 65 66 438 256 0 0 -17 438 0 674 53 392 63 679 256 0 677 +15 674 84 0
 438 680 0 17 53 0 674 672 438 51 677 393 0 531 +17 392 0 674 438 672 66 675 390
 0 679 +17 675 0 681 543 68 54 392 390 0 0 -15 681 2510 0 543 682 0 17 543 0 681
 683 675 72 56 395 0 0 -17 68 0 681 675 683 66 77 375 0 392 -17 683 0 681 68 543
 75 74 368 0 0 -17 77 0 423 553 679 75 68 375 0 435 +17 435 0 550 74 80 75 553 2
57 0 683 +17 74 0 550 542 435 72 683 368 0 540 +17 542 0 550 684 74 237 540 537
 0 0 -17 684 0 550 71 542 231 459 457 0 0 -17 71 0 550 374 684 69 685 451 0 419
 +17 459 0 686 483 233 237 684 457 0 542 +15 686 586 0 233 687 0 17 483 0 686 68
8 459 234 239 472 0 456 +17 233 0 686 459 688 231 230 480 0 685 +17 688 0 686 23
3 483 228 456 447 0 445 -17 230 0 567 167 685 228 233 480 0 688 -17 685 0 567 23
0 419 231 71 451 0 684 -17 419 0 567 685 689 69 690 417 0 554 +17 689 0 567 419
 89 90 450 448 0 690 -17 690 0 691 692 554 90 419 417 0 0 -17 554 0 691 690 95 6
9 374 372 0 0 -15 691 2405 0 690 693 0 17 95 0 691 554 692 93 101 353 0 374 -17
 692 0 691 95 690 99 92 359 0 0 -17 92 0 694 450 453 90 692 359 0 689 +15 694 10
13 0 450 695 0 17 450 0 694 104 92 87 689 448 0 696 +17 453 0 694 92 104 99 548
 442 0 692 +17 104 0 694 453 450 102 696 361 0 548 +17 548 0 545 113 101 102 453
 442 0 697 -17 113 0 545 547 548 111 697 355 0 491 +17 697 0 698 696 699 102 113
 355 0 0 -15 698 2342 0 697 700 0 17 696 0 698 110 697 87 104 361 0 0 -17 699 0
 698 697 110 111 348 346 0 0 -17 110 0 698 699 696 108 89 411 0 348 -17 348 0 70
1 479 491 108 699 346 0 568 +15 701 568 0 479 702 0 17 479 0 701 116 348 105 568
 476 0 703 +17 491 0 701 348 116 111 547 477 0 699 +17 568 0 567 89 107 108 479
 476 0 0 -17 89 0 567 689 568 87 110 411 0 450 +17 107 0 567 568 119 105 571 409
 0 479 +17 571 0 704 705 703 117 107 409 0 345 -15 704 2321 0 706 707 0 17 705 0
 704 706 571 120 345 343 0 0 -17 703 0 704 571 706 105 116 349 0 0 -17 345 0 560
 562 525 117 705 343 0 0 +17 525 0 560 345 342 120 549 523 0 705 +17 549 0 545 9
8 122 123 525 523 0 0 -17 122 0 545 549 547 120 706 357 0 525 +17 547 0 545 122
 113 114 491 477 0 706 -17 706 0 704 703 705 114 122 357 0 0 -17 116 0 701 491 4
79 114 703 349 0 547 +14 707 2320 708 ?700 603 704 6 709 +0 0 700 603 30 81 1 70
8 2873 642 707 710 0 668 711 712 14 700 2341 711 ?613 707 698 6 713 +0 0 613 707
 30 14 603 2299 714 ?707 630 602 6 715 +0 0 707 630 30 51 709 2332 0 707 715 713
 0 +-.004 -.02210203610530035 .0253 0 -1 0 .001 0 0 -1 51 715 2311 0 603 716 709
 0 +.01625 -.0398143637470408 -.02575 0 1 0 .001 0 0 1 51 713 2353 0 700 709 717
 0 +.01625 -.0580534667354156 .0253 0 -1 0 .001 0 0 -1 51 717 2374 0 613 713 718
 0 +.01625 -.0580534667354156 -.01775 0 1 0 .001 0 0 1 14 613 2362 719 ?622 700
 612 6 717 +0 0 622 700 30 51 718 2395 0 622 717 720 0 +-.0093 -.000342135623730
949 -.01775 0 1 0 .001 0 0 1 14 622 2383 721 ?693 613 621 6 718 +0 0 693 613 30
 51 720 2416 0 693 718 722 0 +.01625 .016 .02575 0 1 0 .001 0 0 1 14 693 2404 72
3 ?557 622 691 6 720 +0 0 557 622 30 51 722 2437 0 557 720 724 0 +-.004 -.022102
03610530035 .02575 0 1 0 .001 0 0 1 14 557 2425 725 ?582 693 555 6 722 +0 0 582
 693 30 51 724 2458 0 582 722 726 0 +-.0215 .016 .01225 0 1 0 .001 0 0 1 14 582
 2446 727 ?588 557 579 6 724 +0 0 588 557 30 51 726 2479 0 588 724 728 0 +-.0215
 .016 -.02575 0 -1 0 .001 0 0 -1 14 588 2467 729 ?678 582 586 6 726 +0 0 678 582
 30 51 728 2500 0 678 726 21 0 +.0215 .016 -.02575 0 -1 0 .001 0 0 -1 14 678 248
8 730 ?682 588 676 6 728 +0 0 682 588 30 51 21 2521 0 682 728 7 0 +.0215 .016 .0
2575 0 -1 0 .001 0 0 -1 14 682 2509 731 ?20 678 681 6 21 +0 0 20 678 30 81 1 731
 2883 642 682 732 0 730 733 734 14 20 2628 733 ?0 682 430 6 7 -0 0 0 682 30 81 1
 733 2884 642 20 735 0 731 736 737 15 430 2629 0 431 20 0 17 431 0 430 38 425 12
 31 11 0 0 -17 38 0 430 46 431 34 33 39 0 0 -17 31 0 563 242 40 47 431 11 0 424
 +17 40 0 563 31 255 12 36 251 0 431 +17 46 0 430 425 38 42 41 32 0 422 -80 255
 1 642 738 739 9000 1 1 1 1 1 1 1 1 0 FFFFTFTFFFFFFF1 81 1 735 2769 740 20 0 733
 732 0 741 81 1 736 2885 642 249 742 0 733 743 744 82 255 1 737 -1975581630 14 2
49 1260 736 ?426 695 35 6 745 -0 0 426 695 30 81 1 742 2753 740 249 0 736 746 74
7 748 81 1 743 2886 642 261 749 0 736 750 751 82 1 744 -2108881854 14 261 83 743
 ?584 680 43 6 752 -0 0 584 680 30 81 1 749 2734 740 261 0 743 753 754 755 81 1
 750 2887 642 565 756 0 743 757 758 82 1 751 879297602 14 565 475 750 ?759 666 5
63 6 24 -0 0 759 666 30 81 1 756 2731 740 565 0 750 760 761 762 81 1 757 2888 64
2 630 763 0 750 764 765 82 1 758 1061225538 14 630 2278 757 ?603 634 629 6 716 +
0 0 603 634 30 81 1 763 2757 740 630 0 757 766 767 768 81 1 764 2889 642 695 746
 0 757 769 770 82 1 765 -2089286591 14 695 1010 764 ?249 609 694 6 771 -609 609
 249 609 30 81 1 746 2752 740 695 0 764 772 742 773 81 1 769 2890 642 609 772 0
 764 774 775 82 1 770 1180959809 14 609 1014 769 ?695 627 608 6 771 -695 695 695
 627 30 81 1 772 2751 740 609 0 769 776 746 777 81 1 774 2891 642 627 776 0 769
 778 779 82 1 775 1180435521 14 627 780 774 ?609 618 626 6 780 -0 0 609 618 30 8
1 1 776 2750 740 627 0 774 781 772 782 81 1 778 2892 642 618 781 0 774 783 784 8
2 1 779 1094452289 14 618 595 778 ?627 687 617 6 785 -0 0 627 687 30 81 1 781 27
49 740 618 0 778 786 776 787 81 1 783 2893 642 569 788 0 778 789 790 82 1 784 10
32717377 14 569 576 783 ?687 702 567 6 791 +0 0 687 702 30 81 1 788 2747 740 569
 0 783 792 786 793 81 1 789 2894 642 702 792 0 783 794 795 82 1 790 1055917121 1
4 702 565 789 ?569 636 701 6 796 -0 0 569 636 30 81 1 792 2746 740 702 0 789 797
 788 798 81 1 794 2895 642 636 797 0 789 799 800 82 1 795 1060439105 14 636 561
 794 ?702 801 635 6 802 -0 0 702 801 30 81 1 797 2745 740 636 0 794 803 792 804
 81 1 799 2896 642 561 805 0 794 806 807 82 1 800 1062732865 14 561 228 799 ?808
 576 560 6 809 -0 0 808 576 30 81 1 805 2740 740 561 0 799 810 811 812 81 1 806
 2897 642 576 810 0 799 813 814 82 1 807 909968449 14 576 220 806 ?561 267 575 6
 656 -0 0 561 267 30 81 1 810 2739 740 576 0 806 815 805 816 81 1 813 2898 642 5
84 754 0 806 817 818 82 1 814 910361665 14 584 81 813 ?552 261 583 6 819 -0 0 55
2 261 30 81 1 754 2735 740 584 0 813 749 820 821 81 1 817 2899 642 680 753 0 813
 822 823 82 1 818 879035457 14 680 85 817 ?261 759 674 6 649 -0 0 261 759 30 81
 1 753 2733 740 680 0 817 761 749 824 81 1 822 2900 642 687 786 0 817 825 826 82
 1 823 879559745 14 687 583 822 ?618 569 686 6 827 -0 0 618 569 30 81 1 786 2748
 740 687 0 822 788 781 828 81 1 825 2901 642 759 761 0 822 829 830 82 1 826 1032
324140 14 759 454 825 ?680 565 831 6 832 -0 0 680 565 30 81 1 761 2732 740 759 0
 825 756 753 833 81 1 829 2902 642 801 803 0 825 834 835 82 1 830 1053557798 14
 801 399 829 ?636 836 837 6 838 -0 0 636 836 30 81 1 803 2744 740 801 0 829 839
 797 840 81 1 834 2903 642 836 839 0 829 841 842 82 1 835 959579171 14 836 394 8
34 ?801 843 844 6 845 -0 0 801 843 30 81 1 839 2743 740 836 0 834 846 803 847 81
 1 841 2904 642 843 846 0 834 848 849 82 1 842 960168995 14 843 341 841 ?836 808
 850 6 851 -0 0 836 808 30 81 1 846 2742 740 843 0 841 811 839 852 81 1 848 2905
 642 808 811 0 841 0 853 82 1 849 981533731 14 808 336 848 ?843 561 854 6 855 -0
 0 843 561 30 81 1 811 2741 740 808 0 848 805 846 856 82 1 853 982123555 80 1 74
0 0 857 8001 0 0 0 0 3 5 0 0 0 FFFFTFTFFFFFFF2 83 255 3 856 .898039215686275 .91
7647058823529 .929411764705882 79 255 15 857 SDL/TYSA_COLOUR15 854 339 0 858 808
 859 51 855 355 0 808 851 24 0 +-.0156 .016 .00825 0 1 0 .0017 0 0 1 50 851 356
 0 843 832 855 0 +-.0139 .008 .00825 0 -1 0 0 0 -1 51 24 254 0 565 855 809 860 +
-.012 -.02210203610530035 .02025 0 1 0 .007 0 0 1 50 809 253 0 561 24 656 0 +-.0
05 -.02210203610530035 .02675 1 0 -1334402673828312e-31 -1334402673828312e-31 0
 -1 141 255 860 8 860 860 24 50 656 250 0 576 809 651 0 +-.012 -.022102036105300
35 .01325 -1652117596168385e-31 0 -1 -1 0 1652117596168385e-31 51 832 357 0 759
 845 851 0 +-.0156 .016 .00825 0 1 0 .00325 0 0 1 51 845 413 0 836 838 832 0 +-.
0156 .016 -.02175 0 1 0 .0017 0 0 1 50 838 414 0 801 671 845 0 +-.0139 .008 -.02
175 0 -1 0 0 0 -1 51 671 415 0 666 827 838 0 +-.0156 .016 -.02175 0 1 0 .00325 0
 0 1 50 827 607 0 687 785 671 0 +.02075 -.0580534667354156 -.01675 1 0 -25355276
1409521e-30 -253552761409521e-30 0 -1 50 785 608 0 618 802 827 0 +-.0203 -.05805
34667354156 -.01675 0 0 -1 -1 0 0 50 802 609 0 636 796 785 0 +-.0203 -.058053466
7354156 -.01675 -1 0 845175871365071e-31 845175871365071e-31 0 1 50 796 610 0 70
2 791 802 0 +-.0203 -.0580534667354156 .0243 0 0 1 1 0 0 50 791 612 0 569 780 79
6 0 +0 .0138 0 0 1 0 0 0 1 50 780 805 0 627 771 791 0 +-.0103 -.0003421356237309
49 -.01675 1 0 0 0 0 -1 50 771 1068 0 695 745 780 0 +.01725 -.0398143637470408 -
.02675 -1 0 1296989514749014e-31 1296989514749014e-31 0 1 50 745 1301 0 249 648
 771 0 +-.0085 0 .02675 -1 0 0 0 0 1 50 648 1302 0 426 0 745 0 +.0225 .01 .02675
 0 1 0 0 0 1 17 858 0 854 858 858 0 517 515 0 0 -15 859 340 0 514 808 0 17 514 0
 859 514 514 0 861 512 0 0 +17 861 0 850 861 861 0 514 512 0 0 -15 850 344 0 861
 843 862 15 862 345 0 511 843 0 17 511 0 862 511 511 0 863 509 0 0 +17 863 0 831
 863 863 0 511 509 0 0 -15 831 349 0 863 759 864 15 864 452 0 865 759 0 17 865 0
 864 865 865 0 284 282 0 0 -17 284 0 570 284 284 0 865 282 0 0 +15 570 578 0 284
 569 866 15 866 775 0 471 569 0 17 471 0 866 471 471 0 867 467 0 0 +17 867 0 868
 867 867 0 471 467 0 0 -15 868 702 0 867 666 0 17 517 0 869 517 517 0 858 515 0
 0 +15 869 306 0 517 267 252 83 3 852 .898039215686275 .917647058823529 .9294117
64705882 83 3 847 .898039215686275 .917647058823529 .929411764705882 15 844 397
 0 870 836 871 17 870 0 844 870 870 0 508 506 0 0 -15 871 398 0 505 836 0 17 505
 0 871 505 505 0 872 503 0 0 +17 872 0 837 872 872 0 505 503 0 0 -15 837 402 0 8
72 801 873 15 873 403 0 502 801 0 17 502 0 873 502 502 0 874 500 0 0 +17 874 0 6
70 874 874 0 502 500 0 0 -15 670 407 0 874 666 868 17 508 0 662 508 508 0 870 50
6 0 0 +15 662 364 0 508 267 869 83 3 840 .898039215686275 .917647058823529 .9294
11764705882 83 3 833 .898039215686275 .917647058823529 .929411764705882 83 3 828
 .898039215686275 .917647058823529 .929411764705882 83 3 824 .898039215686275 .9
17647058823529 .929411764705882 50 649 89 0 680 752 641 0 +.0225 .016 -.02675 -1
 0 194548427212352e-30 194548427212352e-30 0 1 50 752 88 0 261 819 649 0 +-.0225
 .016 -.02675 0 0 1 1 0 0 50 819 87 0 584 664 752 0 +-.0225 .016 -.02675 1 0 -12
96989514749014e-31 -1296989514749014e-31 0 -1 50 664 86 0 552 657 819 0 +-.0225
 .016 .02675 0 0 -1 -1 0 0 50 657 65 0 267 651 664 0 +0 0 0 0 1 0 0 0 1 81 1 820
 2736 740 552 0 663 754 659 875 83 3 821 .898039215686275 .917647058823529 .9294
11764705882 81 1 663 2870 642 552 820 0 660 665 876 81 1 659 2737 740 591 0 658
 820 815 877 83 3 875 .898039215686275 .917647058823529 .929411764705882 81 1 81
5 2738 740 267 0 660 659 810 878 83 3 877 .898039215686275 .917647058823529 .929
411764705882 81 1 660 2869 642 267 815 0 658 663 879 83 3 878 .898039215686275 .
917647058823529 .929411764705882 82 1 879 877855809 82 1 876 878773313 83 3 816
 .898039215686275 .917647058823529 .929411764705882 83 3 812 .898039215686275 .9
17647058823529 .929411764705882 83 3 804 .898039215686275 .917647058823529 .9294
11764705882 83 3 798 .898039215686275 .917647058823529 .929411764705882 83 3 793
 .898039215686275 .917647058823529 .929411764705882 83 3 787 .898039215686275 .9
17647058823529 .929411764705882 83 3 782 .898039215686275 .917647058823529 .9294
11764705882 83 3 777 .898039215686275 .917647058823529 .929411764705882 83 3 773
 .898039215686275 .917647058823529 .929411764705882 81 1 766 2756 740 634 0 644
 643 763 880 81 1 767 2758 740 603 0 714 763 710 881 83 3 768 .898039215686275 .
917647058823529 .929411764705882 81 1 714 2875 642 603 767 0 711 719 882 81 1 71
0 2759 740 707 0 708 767 883 884 83 3 881 .898039215686275 .917647058823529 .929
411764705882 81 1 883 2760 740 700 0 711 710 885 886 83 3 884 .898039215686275 .
917647058823529 .929411764705882 81 1 711 2874 642 700 883 0 708 714 887 81 1 88
5 2761 740 613 0 719 883 888 889 83 3 886 .898039215686275 .917647058823529 .929
411764705882 81 1 719 2876 642 613 885 0 714 721 890 81 1 888 2762 740 622 0 721
 885 891 892 83 3 889 .898039215686275 .917647058823529 .929411764705882 81 1 72
1 2877 642 622 888 0 719 723 893 81 1 891 2763 740 693 0 723 888 894 895 83 3 89
2 .898039215686275 .917647058823529 .929411764705882 81 1 723 2878 642 693 891 0
 721 725 896 81 1 894 2764 740 557 0 725 891 897 898 83 3 895 .898039215686275 .
917647058823529 .929411764705882 81 1 725 2879 642 557 894 0 723 727 899 81 1 89
7 2765 740 582 0 727 894 900 901 83 3 898 .898039215686275 .917647058823529 .929
411764705882 81 1 727 2880 642 582 897 0 725 729 902 81 1 900 2766 740 588 0 729
 897 903 904 83 3 901 .898039215686275 .917647058823529 .929411764705882 81 1 72
9 2881 642 588 900 0 727 730 905 81 1 903 2767 740 678 0 730 900 732 906 83 3 90
4 .898039215686275 .917647058823529 .929411764705882 81 1 730 2882 642 678 903 0
 729 731 907 81 1 732 2768 740 682 0 731 903 735 908 83 3 906 .898039215686275 .
917647058823529 .929411764705882 83 3 908 .898039215686275 .917647058823529 .929
411764705882 82 1 907 -2069625791 82 1 905 -2071591871 82 1 902 -2073557951 82 1
 899 -2075524031 82 1 896 -2077490111 82 1 893 -2079456191 82 1 890 -2081422271
 82 1 887 -2083388351 82 1 882 -2087320511 81 1 644 2864 642 634 766 0 640 647 9
09 81 1 643 2755 740 639 0 640 747 766 910 83 3 880 .898039215686275 .9176470588
23529 .929411764705882 81 1 747 2754 740 426 0 647 742 643 911 83 3 910 .8980392
15686275 .917647058823529 .929411764705882 81 1 647 2865 642 426 747 0 644 650 9
12 83 3 911 .898039215686275 .917647058823529 .929411764705882 82 1 912 -2110520
254 82 1 909 -2091252671 51 716 2290 0 630 646 715 0 +-.0093 .016 -.02575 0 1 0
 .001 0 0 1 51 646 2269 0 634 641 716 0 +-.0213 -.0580534667354156 -.02575 0 1 0
 .001 0 0 1 81 1 760 2730 740 666 0 668 667 756 913 83 3 762 .898039215686275 .9
17647058823529 .929411764705882 81 1 668 2872 642 666 760 0 665 708 914 81 1 667
 2729 740 655 0 665 915 760 916 83 3 913 .898039215686275 .917647058823529 .9294
11764705882 81 1 915 2728 740 596 0 653 652 667 917 83 3 916 .898039215686275 .9
17647058823529 .929411764705882 81 1 653 2867 642 596 915 0 650 658 918 81 1 652
 2727 740 18 0 650 0 915 919 83 3 917 .898039215686275 .917647058823529 .9294117
64705882 83 3 919 .898039215686275 .917647058823529 .929411764705882 82 1 918 11
86989121 82 1 914 1119749161 83 3 755 .898039215686275 .917647058823529 .9294117
64705882 83 3 748 .898039215686275 .917647058823529 .929411764705882 83 3 741 .8
98039215686275 .917647058823529 .929411764705882 79 14 739 SWEntUnchanged82 1 73
4 -2067659711 82 1 712 -2085354431 17 456 0 43 432 445 234 688 447 0 0 +17 445 0
 43 456 315 228 167 443 0 0 +17 432 0 43 310 456 168 236 533 0 433 -17 236 0 541
 239 170 234 432 533 0 483 +17 239 0 541 540 236 237 483 472 0 459 -82 1 669 112
0863297 82 1 661 872219713 82 1 654 1187382337 82 1 645 -2093218751 17 215 0 538
 577 536 213 191 297 0 522 +17 522 0 575 212 294 213 577 518 0 580 +17 212 0 575
 224 522 210 580 290 0 266 +17 597 0 594 143 149 150 469 461 0 0 -17 143 0 594 6
19 597 141 152 322 0 486 +17 619 0 594 155 143 144 486 484 0 0 -17 155 0 594 598
 619 153 146 324 0 610 +17 598 0 594 176 155 156 610 454 0 0 -16 454 1506 0 ?610
 457 442 449 442 442 1 30 436 1318 0 257 0 265 0 +.0225 .01 .02675 1 0 0 19 19 9
5 0 1 0 10 6 S0 40 255 7 25 0 1 7 .0002639120038196395 .3398377882238965 ??-.008
5 .006825 .01418782217350892 -.00836433033581913 .0077432026517984 .014268202101
9634 -.00798575595440803 .00855734025268774 .01451538190090836 -.007438440011096
72 .00919438732998544 .01494037002535612 -.00679099909797146 .00964128685413025
 .015573857401376 -.00590669063633623 .00994625952198768 .01680448392854025 -.00
5325 .01 .01814183136348155 41 3 CI8 term_use0 0 1 cCZ1 26 L?-.0085 .006825 .014
18782217350892 41 1 27 L?-.005325 .01 .01814183136348155 204 2 17 INTERSECTION_D
ATA17 Intersection data7 uv_type0 0 1 u6 values0 1 1 fT28 28 4 2.617993877991495
 .02892703610530035 3.141592653589795 -.01256217782649108 2.595465781062745 .029
84523875709875 2.84820405018849 -.0124817978980366 2.53086535780502 .03065937635
79881 2.564465109401055 -.01223461809909164 2.43183307337399 .0312964234352858 2
.299161344406925 -.01180962997464388 2.30234164682984 .0317433229594306 2.050743
141003095 -.011176142598624 2.085430663071035 .03204829562728805 1.7550467027234
35 -.00994551607145976 1.876712510483095 .03210203610530035 1.570796326794895 -.
00860816863651846 141 22 8 22 22 7 50 17 447 0 1 920 4 0 +0 .0138 0 0 1 0 0 0 1
 50 920 446 0 1 921 17 0 +0 .0138 0 0 1 0 0 0 1 50 921 445 0 1 0 920 0 +0 .0138
 0 0 1 0 0 0 1 74 4 CI16 index_map_offset0 0 1 dCCZ20 16 8 0 0 922 923 848 924 9
25 735 14 2 0 0 0 0 0 0 0 0 0 0 0 0 81 2 922 119 926 1 0 923 0 0 0 927 81 2 923
 123 928 1 922 924 0 0 0 929 81 2 924 2698 930 1 923 925 0 0 0 931 81 2 925 2701
 932 1 924 14 0 0 0 0 81 2 14 2861 933 1 925 2 0 0 934 0 80 2 933 935 936 8004 0
 0 0 0 3 5 0 0 0 FFTFFFFFFFFFFF2 3 83 1 934 27e2 79 16 936 SDL/TYSA_DENSITY80 2
 932 937 938 9000 0 0 0 0 3 5 0 0 0 FFTFFFFFFFFFFF9 1 79 16 938 BODY_RECIPE_2001
80 2 930 939 940 9000 0 0 0 0 3 5 0 0 0 FFTFFFFFFFFFFF9 1 82 1 931 1 79 24 940 B
ODY_IN_LIGHTWEIGHT_PERM80 2 928 941 942 9000 0 0 0 0 3 5 0 0 0 FFTFFFFFFFFFFF9 1
 82 1 929 133 79 30 942 LAST_BODY_MODIFYING_FEATURE_ID80 2 926 943 944 9000 0 0
 0 0 3 5 0 0 0 FFTFFFFFFFFFFT9 1 82 1 927 1194 79 19 944 ENT_TIME_STAMP_200180 2
 13 945 946 9000 0 0 0 0 3 5 0 0 0 FFTFFFFFFFFFFF9 1 82 1 15 107 79 12 946 ATOM_
ID_20011 0 
