  0
SECTION
  2
HEADER
  9
$ACADVER
  1
AC1003
  9
$EXTMIN
 10
1.5553425739
 20
5.2848891626
  9
$EXTMAX
 10
4.42935834090001
 20
2.6598891626
  9
$INSUNITS
 70
1
  9
$INSBASE
 10
2.9923504574
 20
3.9723891626
999
Created with OMAX Layout for Windows. (www.omax.com) 10/06/2016
  0
ENDSEC
  0
SECTION
  2
TABLES
  0
TABLE
  2
LAYER
 70
    10
  0
LAYER
  2
0
 70
     0
 62
     7
  6
CONTINUOUS
  0
LAYER
  2
1
 70
     0
 62
     7
  6
CONTINUOUS
  0
LAYER
  2
2
 70
     0
 62
     7
  6
CONTINUOUS
  0
LAYER
  2
3
 70
     0
 62
     7
  6
CONTINUOUS
  0
LAYER
  2
4
 70
     0
 62
     7
  6
CONTINUOUS
  0
LAYER
  2
5
 70
     0
 62
     7
  6
CONTINUOUS
  0
LAYER
  2
6
 70
     0
 62
     7
  6
CONTINUOUS
  0
LAYER
  2
7
 70
     0
 62
     7
  6
CONTINUOUS
  0
LAYER
  2
8
 70
     0
 62
     7
  6
CONTINUOUS
  0
LAYER
  2
9
 70
     0
 62
     7
  6
CONTINUOUS
  0
LAYER
  2
10
 70
     0
 62
     7
  6
CONTINUOUS
  0
LAYER
  2
11
 70
     0
 62
     7
  6
CONTINUOUS
  0
LAYER
  2
12
 70
     0
 62
     7
  6
CONTINUOUS
  0
LAYER
  2
13
 70
     0
 62
     7
  6
CONTINUOUS
  0
LAYER
  2
14
 70
     0
 62
     7
  6
CONTINUOUS
  0
LAYER
  2
15
 70
     0
 62
     7
  6
CONTINUOUS
  0
LAYER
  2
16
 70
     0
 62
     7
  6
CONTINUOUS
  0
LAYER
  2
17
 70
     0
 62
     7
  6
CONTINUOUS
  0
LAYER
  2
18
 70
     0
 62
     7
  6
CONTINUOUS
  0
LAYER
  2
19
 70
     0
 62
     7
  6
CONTINUOUS
  0
LAYER
  2
20
 70
     0
 62
     7
  6
CONTINUOUS
  0
LAYER
  2
21
 70
     0
 62
     7
  6
CONTINUOUS
  0
LAYER
  2
22
 70
     0
 62
     7
  6
CONTINUOUS
  0
LAYER
  2
23
 70
     0
 62
     7
  6
CONTINUOUS
  0
LAYER
  2
24
 70
     0
 62
     7
  6
CONTINUOUS
  0
LAYER
  2
25
 70
     0
 62
     7
  6
CONTINUOUS
  0
LAYER
  2
26
 70
     0
 62
     7
  6
CONTINUOUS
  0
LAYER
  2
27
 70
     0
 62
     7
  6
CONTINUOUS
  0
LAYER
  2
28
 70
     0
 62
     7
  6
CONTINUOUS
  0
LAYER
  2
29
 70
     0
 62
     7
  6
CONTINUOUS
  0
LAYER
  2
30
 70
     0
 62
     7
  6
CONTINUOUS
  0
LAYER
  2
31
 70
     0
 62
     7
  6
CONTINUOUS
  0
ENDTAB
  0
ENDSEC
  0
SECTION
  2
ENTITIES
  0
ARC
  8
4
  6
CONTINUOUS
 62
4
 10
2.2099488775
 20
3.1899875826
 30
0.0
 40
0.0590551184999934
 50
112.4989546745
 51
225
  0
ARC
  8
4
  6
CONTINUOUS
 62
4
 10
2.2099488775
 20
3.1899875826
 30
0.0
 40
0.0590551184999934
 50
224.999999999999
 51
337.501045325499
  0
LINE
  8
4
  6
CONTINUOUS
 62
4
 10
2.6380197464
 20
2.9734521481
 30
0.0
 11
2.6380197464
 21
3.1673891626
 31
0.0
  0
ARC
  8
4
  6
CONTINUOUS
 62
4
 10
2.7364449439
 20
2.9734521481
 30
0.0
 40
0.0984251974999992
 50
179.999999999999
 51
269.999999999999
  0
LINE
  8
4
  6
CONTINUOUS
 62
4
 10
3.2482559709
 20
2.8750269506
 30
0.0
 11
2.7364449439
 21
2.8750269506
 31
0.0
  0
ARC
  8
4
  6
CONTINUOUS
 62
4
 10
3.2482559709
 20
2.9734521481
 30
0.0
 40
0.0984251974999997
 50
269.999999999999
 51
359.999999999999
  0
LINE
  8
4
  6
CONTINUOUS
 62
4
 10
3.3466811684
 20
3.1673891626
 30
0.0
 11
3.3466811684
 21
2.9734521481
 31
0.0
  0
ARC
  8
4
  6
CONTINUOUS
 62
4
 10
3.7747520374
 20
3.1899875826
 30
0.0
 40
0.0590551185000019
 50
202.4989546745
 51
314.999999999999
  0
ARC
  8
4
  6
CONTINUOUS
 62
4
 10
3.7747520374
 20
3.1899875826
 30
0.0
 40
0.0590551185000018
 50
314.999999999999
 51
67.5010453254998
  0
ARC
  8
4
  6
CONTINUOUS
 62
4
 10
3.7747520374
 20
4.7547907425
 30
0.0
 40
0.0590551185000087
 50
292.498954674499
 51
44.9999999999999
  0
ARC
  8
4
  6
CONTINUOUS
 62
4
 10
3.7747520374
 20
4.7547907425
 30
0.0
 40
0.0590551185000087
 50
44.9999999999997
 51
157.5010453255
  0
LINE
  8
4
  6
CONTINUOUS
 62
4
 10
3.3466811684
 20
4.971326177
 30
0.0
 11
3.3466811684
 21
4.7773891626
 31
0.0
  0
ARC
  8
4
  6
CONTINUOUS
 62
4
 10
3.2482559709
 20
4.971326177
 30
0.0
 40
0.0984251975000001
 50
359.999999999999
 51
89.9999999999998
  0
LINE
  8
4
  6
CONTINUOUS
 62
4
 10
2.7364449439
 20
5.0697513745
 30
0.0
 11
3.2482559709
 21
5.0697513745
 31
0.0
  0
ARC
  8
4
  6
CONTINUOUS
 62
4
 10
2.7364449439
 20
4.971326177
 30
0.0
 40
0.0984251975000001
 50
89.9999999999998
 51
180
  0
LINE
  8
4
  6
CONTINUOUS
 62
4
 10
2.6380197464
 20
4.7773891626
 30
0.0
 11
2.6380197464
 21
4.971326177
 31
0.0
  0
ARC
  8
4
  6
CONTINUOUS
 62
4
 10
2.2099488775
 20
4.7547907425
 30
0.0
 40
0.0590551185000005
 50
22.4989546744999
 51
135
  0
ARC
  8
4
  6
CONTINUOUS
 62
4
 10
2.2099488775
 20
4.7547907425
 30
0.0
 40
0.0590551185
 50
134.999999999999
 51
247.501045325499
  0
ARC
  8
4
  6
CONTINUOUS
 62
4
 10
3.8048504574
 20
5.1848891626
 30
0.0
 40
0.100000000000001
 50
359.999999999999
 51
89.9999999999998
  0
LINE
  8
4
  6
CONTINUOUS
 62
4
 10
3.9048504574
 20
5.1848891626
 30
0.0
 11
3.9048504574
 21
5.0452238153
 31
0.0
  0
LINE
  8
4
  6
CONTINUOUS
 62
4
 10
3.9048504574
 20
5.0452238153
 30
0.0
 11
3.9651851102
 21
5.0452238153
 31
0.0
  0
ARC
  8
4
  6
CONTINUOUS
 62
4
 10
3.9651851102
 20
4.9452238153
 30
0.0
 40
0.0999999999999997
 50
359.999999999999
 51
89.9999999999998
  0
LINE
  8
4
  6
CONTINUOUS
 62
4
 10
4.0651851102
 20
4.9452238153
 30
0.0
 11
4.0651851102
 21
4.6982708236
 31
0.0
  0
ARC
  8
4
  6
CONTINUOUS
 62
4
 10
3.52384652390001
 20
3.97238916260001
 30
0.0
 40
0.905511817000002
 50
306.714360736199
 51
53.2856392637998
  0
LINE
  8
4
  6
CONTINUOUS
 62
4
 10
4.0651851102
 20
3.2465075016
 30
0.0
 11
4.0651851102
 21
2.9995545098
 31
0.0
  0
ARC
  8
4
  6
CONTINUOUS
 62
4
 10
3.9651851102
 20
2.9995545098
 30
0.0
 40
0.100000000000001
 50
269.999999999999
 51
359.999999999999
  0
LINE
  8
4
  6
CONTINUOUS
 62
4
 10
3.9651851102
 20
2.8995545098
 30
0.0
 11
3.9048504574
 21
2.8995545098
 31
0.0
  0
LINE
  8
4
  6
CONTINUOUS
 62
4
 10
3.9048504574
 20
2.8995545098
 30
0.0
 11
3.9048504574
 21
2.7598891626
 31
0.0
  0
ARC
  8
4
  6
CONTINUOUS
 62
4
 10
3.8048504574
 20
2.7598891626
 30
0.0
 40
0.100000000000001
 50
269.999999999999
 51
359.999999999999
  0
LINE
  8
4
  6
CONTINUOUS
 62
4
 10
3.8048504574
 20
2.6598891626
 30
0.0
 11
2.1798504574
 21
2.6598891626
 31
0.0
  0
ARC
  8
4
  6
CONTINUOUS
 62
4
 10
2.1798504574
 20
2.7598891626
 30
0.0
 40
0.100000000000001
 50
179.999999999999
 51
269.999999999999
  0
LINE
  8
4
  6
CONTINUOUS
 62
4
 10
2.0798504574
 20
2.7598891626
 30
0.0
 11
2.0798504574
 21
2.8995545098
 31
0.0
  0
LINE
  8
4
  6
CONTINUOUS
 62
4
 10
2.0798504574
 20
2.8995545098
 30
0.0
 11
2.0195158047
 21
2.8995545098
 31
0.0
  0
ARC
  8
4
  6
CONTINUOUS
 62
4
 10
2.0195158047
 20
2.9995545098
 30
0.0
 40
0.100000000000001
 50
179.999999999999
 51
269.999999999999
  0
LINE
  8
4
  6
CONTINUOUS
 62
4
 10
1.9195158047
 20
2.9995545098
 30
0.0
 11
1.9195158047
 21
3.2465075016
 31
0.0
  0
ARC
  8
4
  6
CONTINUOUS
 62
4
 10
2.46085439089999
 20
3.97238916259999
 30
0.0
 40
0.905511817000002
 50
126.714360736199
 51
233.285639263799
  0
LINE
  8
4
  6
CONTINUOUS
 62
4
 10
1.9195158047
 20
4.6982708236
 30
0.0
 11
1.9195158047
 21
4.9452238153
 31
0.0
  0
ARC
  8
4
  6
CONTINUOUS
 62
4
 10
2.0195158047
 20
4.9452238153
 30
0.0
 40
0.100000000000001
 50
89.9999999999998
 51
180
  0
LINE
  8
4
  6
CONTINUOUS
 62
4
 10
2.0195158047
 20
5.0452238153
 30
0.0
 11
2.0798504574
 21
5.0452238153
 31
0.0
  0
LINE
  8
4
  6
CONTINUOUS
 62
4
 10
2.0798504574
 20
5.0452238153
 30
0.0
 11
2.0798504574
 21
5.1848891626
 31
0.0
  0
ARC
  8
4
  6
CONTINUOUS
 62
4
 10
2.1798504574
 20
5.1848891626
 30
0.0
 40
0.100000000000001
 50
89.9999999999998
 51
180
  0
LINE
  8
4
  6
CONTINUOUS
 62
4
 10
2.1798504574
 20
5.2848891626
 30
0.0
 11
3.8048504574
 21
5.2848891626
 31
0.0
  0
LINE
  8
4
  6
CONTINUOUS
 62
4
 10
2.2099488775
 20
4.695735624
 30
0.0
 11
2.2099488775
 21
3.2490427011
 31
0.0
  0
ARC
  8
4
  6
CONTINUOUS
 62
4
 10
2.2099488775
 20
4.7547907425
 30
0.0
 40
0.0590551185000008
 50
247.5010453255
 51
270
  0
ARC
  8
4
  6
CONTINUOUS
 62
4
 10
2.2099488775
 20
3.1899875826
 30
0.0
 40
0.0590551184999949
 50
89.9999999999994
 51
112.498954674499
  0
LINE
  8
4
  6
CONTINUOUS
 62
4
 10
3.7747520374
 20
3.2490427011
 30
0.0
 11
3.7747520374
 21
4.695735624
 31
0.0
  0
ARC
  8
4
  6
CONTINUOUS
 62
4
 10
3.7747520374
 20
4.7547907425
 30
0.0
 40
0.059055118500009
 50
270
 51
292.4989546745
  0
ARC
  8
4
  6
CONTINUOUS
 62
4
 10
3.7747520374
 20
3.1899875826
 30
0.0
 40
0.0590551185000019
 50
67.5010453255004
 51
90.0000000000004
  0
LINE
  8
4
  6
CONTINUOUS
 62
4
 10
2.6380197464
 20
4.7547907425
 30
0.0
 11
2.269003996
 21
4.7547907425
 31
0.0
  0
LINE
  8
4
  6
CONTINUOUS
 62
4
 10
2.6380197464
 20
4.7773891626
 30
0.0
 11
2.6380197464
 21
4.7547907425
 31
0.0
  0
ARC
  8
4
  6
CONTINUOUS
 62
4
 10
2.2099488775
 20
4.7547907425
 30
0.0
 40
0.0590551184999996
 50
359.999999999999
 51
22.4989546744996
  0
LINE
  8
4
  6
CONTINUOUS
 62
4
 10
2.269003996
 20
3.1899875826
 30
0.0
 11
2.6380197464
 21
3.1899875826
 31
0.0
  0
ARC
  8
4
  6
CONTINUOUS
 62
4
 10
2.2099488775
 20
3.1899875826
 30
0.0
 40
0.0590551184999941
 50
337.501045325499
 51
359.999999999999
  0
LINE
  8
4
  6
CONTINUOUS
 62
4
 10
2.6380197464
 20
3.1899875826
 30
0.0
 11
2.6380197464
 21
3.1673891626
 31
0.0
  0
LINE
  8
4
  6
CONTINUOUS
 62
4
 10
3.7156969189
 20
4.7547907425
 30
0.0
 11
3.3466811684
 21
4.7547907425
 31
0.0
  0
ARC
  8
4
  6
CONTINUOUS
 62
4
 10
3.7747520374
 20
4.7547907425
 30
0.0
 40
0.0590551185000113
 50
157.5010453255
 51
180
  0
LINE
  8
4
  6
CONTINUOUS
 62
4
 10
3.3466811684
 20
4.7547907425
 30
0.0
 11
3.3466811684
 21
4.7773891626
 31
0.0
  0
LINE
  8
4
  6
CONTINUOUS
 62
4
 10
3.3466811684
 20
3.1899875826
 30
0.0
 11
3.7156969189
 21
3.1899875826
 31
0.0
  0
LINE
  8
4
  6
CONTINUOUS
 62
4
 10
3.3466811684
 20
3.1673891626
 30
0.0
 11
3.3466811684
 21
3.1899875826
 31
0.0
  0
ARC
  8
4
  6
CONTINUOUS
 62
4
 10
3.7747520374
 20
3.1899875826
 30
0.0
 40
0.0590551185000018
 50
179.999999999999
 51
202.498954674499
  0
ENDSEC
  0
EOF
