  0
SECTION
  2
HEADER
  9
$ACADVER
  1
AC1003
  9
$EXTMIN
 10
0
 20
3.24015750170001
  9
$EXTMAX
 10
4.90157483550002
 20
0
  9
$INSUNITS
 70
1
  9
$INSBASE
 10
2.45078741775001
 20
1.62007875085001
999
Created with OMAX Layout for Windows. (www.omax.com) 10/06/2016
  0
ENDSEC
  0
SECTION
  2
TABLES
  0
TABLE
  2
LAYER
 70
    10
  0
LAYER
  2
0
 70
     0
 62
     7
  6
CONTINUOUS
  0
LAYER
  2
1
 70
     0
 62
     7
  6
CONTINUOUS
  0
LAYER
  2
2
 70
     0
 62
     7
  6
CONTINUOUS
  0
LAYER
  2
3
 70
     0
 62
     7
  6
CONTINUOUS
  0
LAYER
  2
4
 70
     0
 62
     7
  6
CONTINUOUS
  0
LAYER
  2
5
 70
     0
 62
     7
  6
CONTINUOUS
  0
LAYER
  2
6
 70
     0
 62
     7
  6
CONTINUOUS
  0
LAYER
  2
7
 70
     0
 62
     7
  6
CONTINUOUS
  0
LAYER
  2
8
 70
     0
 62
     7
  6
CONTINUOUS
  0
LAYER
  2
9
 70
     0
 62
     7
  6
CONTINUOUS
  0
LAYER
  2
10
 70
     0
 62
     7
  6
CONTINUOUS
  0
LAYER
  2
11
 70
     0
 62
     7
  6
CONTINUOUS
  0
LAYER
  2
12
 70
     0
 62
     7
  6
CONTINUOUS
  0
LAYER
  2
13
 70
     0
 62
     7
  6
CONTINUOUS
  0
LAYER
  2
14
 70
     0
 62
     7
  6
CONTINUOUS
  0
LAYER
  2
15
 70
     0
 62
     7
  6
CONTINUOUS
  0
LAYER
  2
16
 70
     0
 62
     7
  6
CONTINUOUS
  0
LAYER
  2
17
 70
     0
 62
     7
  6
CONTINUOUS
  0
LAYER
  2
18
 70
     0
 62
     7
  6
CONTINUOUS
  0
LAYER
  2
19
 70
     0
 62
     7
  6
CONTINUOUS
  0
LAYER
  2
20
 70
     0
 62
     7
  6
CONTINUOUS
  0
LAYER
  2
21
 70
     0
 62
     7
  6
CONTINUOUS
  0
LAYER
  2
22
 70
     0
 62
     7
  6
CONTINUOUS
  0
LAYER
  2
23
 70
     0
 62
     7
  6
CONTINUOUS
  0
LAYER
  2
24
 70
     0
 62
     7
  6
CONTINUOUS
  0
LAYER
  2
25
 70
     0
 62
     7
  6
CONTINUOUS
  0
LAYER
  2
26
 70
     0
 62
     7
  6
CONTINUOUS
  0
LAYER
  2
27
 70
     0
 62
     7
  6
CONTINUOUS
  0
LAYER
  2
28
 70
     0
 62
     7
  6
CONTINUOUS
  0
LAYER
  2
29
 70
     0
 62
     7
  6
CONTINUOUS
  0
LAYER
  2
30
 70
     0
 62
     7
  6
CONTINUOUS
  0
LAYER
  2
31
 70
     0
 62
     7
  6
CONTINUOUS
  0
ENDTAB
  0
ENDSEC
  0
SECTION
  2
ENTITIES
  0
ARC
  8
3
  6
CONTINUOUS
 62
3
 10
1.13610236967618
 20
1.62007875083558
 30
0.0
 40
0.581200790035583
 50
201.461569639348
 51
270.000000002348
  0
ARC
  8
3
  6
CONTINUOUS
 62
3
 10
0.420700844600008
 20
1.33882875080001
 30
0.0
 40
0.1875
 50
21.4615696369998
 51
89.9999999999998
  0
LINE
  8
3
  6
CONTINUOUS
 62
3
 10
0.420700844600009
 20
1.52632875080001
 30
0.0
 11
0.375000000000008
 21
1.52632875080001
 31
0.0
  0
ARC
  8
3
  6
CONTINUOUS
 62
3
 10
0.375000000000008
 20
1.33882875080001
 30
0.0
 40
0.1875
 50
89.9999999999999
 51
180
  0
LINE
  8
3
  6
CONTINUOUS
 62
3
 10
0.187500000000008
 20
1.33882875080001
 30
0.0
 11
0.187500000000007
 21
0.375000000000007
 31
0.0
  0
ARC
  8
3
  6
CONTINUOUS
 62
3
 10
0.375000000000008
 20
0.375000000000006
 30
0.0
 40
0.1875
 50
180
 51
270
  0
LINE
  8
3
  6
CONTINUOUS
 62
3
 10
0.375000000000008
 20
0.187500000000007
 30
0.0
 11
2.16953741770001
 21
0.187500000000007
 31
0.0
  0
ARC
  8
3
  6
CONTINUOUS
 62
3
 10
2.16953741770001
 20
0.375000000000007
 30
0.0
 40
0.1875
 50
269.999999999999
 51
359.999999999999
  0
LINE
  8
3
  6
CONTINUOUS
 62
3
 10
2.35703741770001
 20
0.375000000000007
 30
0.0
 11
2.35703741770001
 21
0.383149611300007
 31
0.0
  0
ARC
  8
3
  6
CONTINUOUS
 62
3
 10
2.16953741770001
 20
0.383149611300009
 30
0.0
 40
0.1875
 50
359.999999999999
 51
89.9999999999997
  0
LINE
  8
3
  6
CONTINUOUS
 62
3
 10
2.16953741770001
 20
0.570649611300007
 30
0.0
 11
1.64791339670001
 21
0.570649611300005
 31
0.0
  0
ARC
  8
3
  6
CONTINUOUS
 62
3
 10
1.64791339670001
 20
0.817204729800003
 30
0.0
 40
0.246555118500001
 50
179.999999999999
 51
269.999999999999
  0
LINE
  8
3
  6
CONTINUOUS
 62
3
 10
1.40135827820001
 20
0.817204729800006
 30
0.0
 11
1.40135827820001
 21
0.851377960800007
 31
0.0
  0
ARC
  8
3
  6
CONTINUOUS
 62
3
 10
1.21385827820001
 20
0.851377960800007
 30
0.0
 40
0.1875
 50
8.26944217180514E-14
 51
90.0000000000001
  0
LINE
  8
3
  6
CONTINUOUS
 62
3
 10
1.21385827820001
 20
1.03887796080001
 30
0.0
 11
1.13610236970001
 21
1.03887796080001
 31
0.0
  0
ARC
  8
3
  6
CONTINUOUS
 62
3
 10
3.76547246577383
 20
1.62007875083781
 30
0.0
 40
0.581200789962202
 50
21.4615696344196
 51
89.9999999974196
  0
ARC
  8
3
  6
CONTINUOUS
 62
3
 10
4.48087399080001
 20
1.90132875080001
 30
0.0
 40
0.1875
 50
201.461569637
 51
270
  0
LINE
  8
3
  6
CONTINUOUS
 62
3
 10
4.48087399080001
 20
1.71382875080001
 30
0.0
 11
4.52657483550001
 21
1.71382875080001
 31
0.0
  0
ARC
  8
3
  6
CONTINUOUS
 62
3
 10
4.52657483550001
 20
1.90132875080001
 30
0.0
 40
0.187499999999999
 50
269.999999999999
 51
359.999999999999
  0
LINE
  8
3
  6
CONTINUOUS
 62
3
 10
4.71407483550001
 20
1.90132875080001
 30
0.0
 11
4.71407483550001
 21
2.86515750170001
 31
0.0
  0
ARC
  8
3
  6
CONTINUOUS
 62
3
 10
4.52657483550001
 20
2.86515750170001
 30
0.0
 40
0.1875
 50
359.999999999999
 51
89.9999999999998
  0
LINE
  8
3
  6
CONTINUOUS
 62
3
 10
4.52657483550001
 20
3.05265750170001
 30
0.0
 11
2.73203741770001
 21
3.05265750170001
 31
0.0
  0
ARC
  8
3
  6
CONTINUOUS
 62
3
 10
2.73203741770001
 20
2.86515750170001
 30
0.0
 40
0.1875
 50
89.9999999999998
 51
180
  0
LINE
  8
3
  6
CONTINUOUS
 62
3
 10
2.54453741770001
 20
2.86515750170001
 30
0.0
 11
2.54453741770001
 21
2.85700789040001
 31
0.0
  0
ARC
  8
3
  6
CONTINUOUS
 62
3
 10
2.73203741770001
 20
2.8570078904
 30
0.0
 40
0.1875
 50
179.999999999999
 51
269.999999999999
  0
LINE
  8
3
  6
CONTINUOUS
 62
3
 10
2.73203741770001
 20
2.66950789040001
 30
0.0
 11
3.25366143880001
 21
2.66950789040001
 31
0.0
  0
ARC
  8
3
  6
CONTINUOUS
 62
3
 10
3.25366143880001
 20
2.42295277190001
 30
0.0
 40
0.246555118500001
 50
359.999999999999
 51
89.9999999999996
  0
LINE
  8
3
  6
CONTINUOUS
 62
3
 10
3.50021655730001
 20
2.42295277190001
 30
0.0
 11
3.50021655730001
 21
2.38877954080001
 31
0.0
  0
ARC
  8
3
  6
CONTINUOUS
 62
3
 10
3.68771655730001
 20
2.3887795408
 30
0.0
 40
0.1875
 50
179.999999999999
 51
269.999999999999
  0
LINE
  8
3
  6
CONTINUOUS
 62
3
 10
3.68771655730001
 20
2.20127954080001
 30
0.0
 11
3.76547246580001
 21
2.20127954080001
 31
0.0
  0
LINE
  8
3
  6
CONTINUOUS
 62
3
 10
1.77635683940025E-15
 20
0.196850395000006
 30
0.0
 11
0
 21
3.04330710670001
 31
0.0
  0
ARC
  8
3
  6
CONTINUOUS
 62
3
 10
0.196850395000004
 20
3.0433071067
 30
0.0
 40
0.196850395000004
 50
89.9999999999987
 51
179.999999999999
  0
LINE
  8
3
  6
CONTINUOUS
 62
3
 10
0.196850395000008
 20
3.24015750170001
 30
0.0
 11
4.70472444050001
 21
3.24015750170001
 31
0.0
  0
ARC
  8
3
  6
CONTINUOUS
 62
3
 10
4.70472444050001
 20
3.04330710670001
 30
0.0
 40
0.196850395000003
 50
359.999999999999
 51
89.999999999999
  0
LINE
  8
3
  6
CONTINUOUS
 62
3
 10
4.90157483550001
 20
3.04330710670001
 30
0.0
 11
4.90157483550002
 21
0.196850395000006
 31
0.0
  0
ARC
  8
3
  6
CONTINUOUS
 62
3
 10
4.70472444050001
 20
0.19685039500001
 30
0.0
 40
0.196850395000003
 50
269.999999999998
 51
359.999999999998
  0
LINE
  8
3
  6
CONTINUOUS
 62
3
 10
4.70472444050001
 20
7.105427357601E-15
 30
0.0
 11
0.196850395000008
 21
0
 31
0.0
  0
ARC
  8
3
  6
CONTINUOUS
 62
3
 10
0.196850395000008
 20
0.196850395000005
 30
0.0
 40
0.196850395000006
 50
179.999999999999
 51
269.999999999999
  0
LINE
  8
3
  6
CONTINUOUS
 62
3
 10
1.13610236970001
 20
2.01377954080001
 30
0.0
 11
1.64791339670001
 21
2.01377954080001
 31
0.0
  0
ARC
  8
3
  6
CONTINUOUS
 62
3
 10
1.13610236970001
 20
1.62007875080001
 30
0.0
 40
0.393700790000002
 50
89.9999999999998
 51
270
  0
LINE
  8
3
  6
CONTINUOUS
 62
3
 10
1.64791339670001
 20
1.2263779608
 30
0.0
 11
1.13610236970001
 21
1.22637796080001
 31
0.0
  0
ARC
  8
3
  6
CONTINUOUS
 62
3
 10
1.64791339670001
 20
0.817204729800007
 30
0.0
 40
0.0590551185000014
 50
89.9999999999999
 51
225
  0
ARC
  8
3
  6
CONTINUOUS
 62
3
 10
1.64791339670001
 20
0.817204729800006
 30
0.0
 40
0.0590551185000014
 50
224.999999999999
 51
359.999999999999
  0
ARC
  8
3
  6
CONTINUOUS
 62
3
 10
3.25366143880001
 20
0.817204729800006
 30
0.0
 40
0.0590551184999979
 50
179.999999999999
 51
314.999999999999
  0
ARC
  8
3
  6
CONTINUOUS
 62
3
 10
3.25366143880001
 20
0.817204729800007
 30
0.0
 40
0.0590551184999982
 50
314.999999999999
 51
89.9999999999995
  0
LINE
  8
3
  6
CONTINUOUS
 62
3
 10
3.76547246580001
 20
1.2263779608
 30
0.0
 11
3.25366143880001
 21
1.2263779608
 31
0.0
  0
ARC
  8
3
  6
CONTINUOUS
 62
3
 10
3.76547246580001
 20
1.6200787508
 30
0.0
 40
0.393700790000002
 50
269.999999999999
 51
89.9999999999998
  0
LINE
  8
3
  6
CONTINUOUS
 62
3
 10
3.25366143880001
 20
2.01377954080001
 30
0.0
 11
3.76547246580001
 21
2.01377954080001
 31
0.0
  0
ARC
  8
3
  6
CONTINUOUS
 62
3
 10
3.25366143880001
 20
2.42295277190001
 30
0.0
 40
0.0590551184999977
 50
270
 51
45
  0
ARC
  8
3
  6
CONTINUOUS
 62
3
 10
3.25366143880001
 20
2.42295277190001
 30
0.0
 40
0.0590551184999977
 50
44.9999999999997
 51
180
  0
ARC
  8
3
  6
CONTINUOUS
 62
3
 10
1.64791339670001
 20
2.42295277190001
 30
0.0
 40
0.0590551185000016
 50
359.999999999999
 51
134.999999999999
  0
ARC
  8
3
  6
CONTINUOUS
 62
3
 10
1.64791339670001
 20
2.42295277190001
 30
0.0
 40
0.0590551185000018
 50
134.999999999999
 51
269.999999999999
  0
LINE
  8
3
  6
CONTINUOUS
 62
3
 10
2.16953741770001
 20
2.66950789040001
 30
0.0
 11
1.64791339670001
 21
2.66950789040001
 31
0.0
  0
ARC
  8
3
  6
CONTINUOUS
 62
3
 10
2.16953741770001
 20
2.85700789040001
 30
0.0
 40
0.1875
 50
269.999999999999
 51
359.999999999999
  0
LINE
  8
3
  6
CONTINUOUS
 62
3
 10
2.35703741770001
 20
2.86515750170001
 30
0.0
 11
2.35703741770001
 21
2.85700789040001
 31
0.0
  0
ARC
  8
3
  6
CONTINUOUS
 62
3
 10
2.16953741770001
 20
2.86515750170001
 30
0.0
 40
0.1875
 50
359.999999999999
 51
89.9999999999998
  0
LINE
  8
3
  6
CONTINUOUS
 62
3
 10
0.375000000000007
 20
3.05265750170001
 30
0.0
 11
2.16953741770001
 21
3.05265750170001
 31
0.0
  0
ARC
  8
3
  6
CONTINUOUS
 62
3
 10
0.375000000000008
 20
2.86515750170001
 30
0.0
 40
0.1875
 50
90.0000000000002
 51
180
  0
LINE
  8
3
  6
CONTINUOUS
 62
3
 10
0.187500000000008
 20
1.90132875080001
 30
0.0
 11
0.187500000000008
 21
2.86515750170001
 31
0.0
  0
ARC
  8
3
  6
CONTINUOUS
 62
3
 10
0.375000000000008
 20
1.9013287508
 30
0.0
 40
0.1875
 50
179.999999999999
 51
269.999999999999
  0
LINE
  8
3
  6
CONTINUOUS
 62
3
 10
0.420700844600009
 20
1.71382875080001
 30
0.0
 11
0.375000000000008
 21
1.71382875080001
 31
0.0
  0
ARC
  8
3
  6
CONTINUOUS
 62
3
 10
0.420700844623834
 20
1.90132875083559
 30
0.0
 40
0.187500000035583
 50
269.999999992719
 51
338.538430355719
  0
ARC
  8
3
  6
CONTINUOUS
 62
3
 10
1.1361023697
 20
1.62007875080001
 30
0.0
 40
0.581200790000001
 50
89.9999999999995
 51
158.538430363
  0
LINE
  8
3
  6
CONTINUOUS
 62
3
 10
1.21385827820001
 20
2.20127954080001
 30
0.0
 11
1.13610236970001
 21
2.20127954080001
 31
0.0
  0
ARC
  8
3
  6
CONTINUOUS
 62
3
 10
1.21385827820001
 20
2.38877954080001
 30
0.0
 40
0.187499999999999
 50
270
 51
8.26944217180514E-14
  0
LINE
  8
3
  6
CONTINUOUS
 62
3
 10
1.40135827820001
 20
2.42295277190001
 30
0.0
 11
1.40135827820001
 21
2.38877954080001
 31
0.0
  0
ARC
  8
3
  6
CONTINUOUS
 62
3
 10
1.64791339670001
 20
2.42295277190001
 30
0.0
 40
0.246555118500001
 50
90
 51
180
  0
LINE
  8
3
  6
CONTINUOUS
 62
3
 10
2.73203741770001
 20
0.570649611300006
 30
0.0
 11
3.25366143880001
 21
0.570649611300005
 31
0.0
  0
ARC
  8
3
  6
CONTINUOUS
 62
3
 10
2.73203741770001
 20
0.383149611300006
 30
0.0
 40
0.1875
 50
89.9999999999997
 51
180
  0
LINE
  8
3
  6
CONTINUOUS
 62
3
 10
2.54453741770001
 20
0.375000000000007
 30
0.0
 11
2.54453741770001
 21
0.383149611300007
 31
0.0
  0
ARC
  8
3
  6
CONTINUOUS
 62
3
 10
2.73203741770001
 20
0.375000000000006
 30
0.0
 40
0.1875
 50
180
 51
270
  0
LINE
  8
3
  6
CONTINUOUS
 62
3
 10
4.52657483550001
 20
0.187500000000007
 30
0.0
 11
2.73203741770001
 21
0.187500000000008
 31
0.0
  0
ARC
  8
3
  6
CONTINUOUS
 62
3
 10
4.52657483550001
 20
0.375000000000007
 30
0.0
 40
0.1875
 50
269.999999999999
 51
359.999999999999
  0
LINE
  8
3
  6
CONTINUOUS
 62
3
 10
4.71407483550001
 20
1.33882875080001
 30
0.0
 11
4.71407483550001
 21
0.375000000000007
 31
0.0
  0
ARC
  8
3
  6
CONTINUOUS
 62
3
 10
4.52657483550001
 20
1.33882875080001
 30
0.0
 40
0.187500000000001
 50
8.26944217180514E-14
 51
90.0000000000001
  0
LINE
  8
3
  6
CONTINUOUS
 62
3
 10
4.48087399080001
 20
1.52632875080001
 30
0.0
 11
4.52657483550001
 21
1.52632875080001
 31
0.0
  0
ARC
  8
3
  6
CONTINUOUS
 62
3
 10
4.48087399082619
 20
1.33882875083781
 30
0.0
 40
0.187499999962201
 50
90.0000000079992
 51
158.538430370999
  0
ARC
  8
3
  6
CONTINUOUS
 62
3
 10
3.76547246580002
 20
1.62007875080001
 30
0.0
 40
0.581200790000002
 50
269.999999999999
 51
338.538430362999
  0
LINE
  8
3
  6
CONTINUOUS
 62
3
 10
3.68771655730001
 20
1.03887796080001
 30
0.0
 11
3.76547246580001
 21
1.03887796080001
 31
0.0
  0
ARC
  8
3
  6
CONTINUOUS
 62
3
 10
3.68771655730001
 20
0.851377960800007
 30
0.0
 40
0.1875
 50
89.9999999999998
 51
180
  0
LINE
  8
3
  6
CONTINUOUS
 62
3
 10
3.50021655730001
 20
0.817204729800006
 30
0.0
 11
3.50021655730001
 21
0.851377960800007
 31
0.0
  0
ARC
  8
3
  6
CONTINUOUS
 62
3
 10
3.25366143880001
 20
0.817204729800006
 30
0.0
 40
0.246555118500002
 50
269.999999999999
 51
359.999999999999
  0
ARC
  8
3
  6
CONTINUOUS
 62
3
 10
3.25366143880001
 20
1.89566930380001
 30
0.0
 40
0.118110236999999
 50
89.9999999999996
 51
180
  0
LINE
  8
3
  6
CONTINUOUS
 62
3
 10
3.1355512018
 20
1.34448819780001
 30
0.0
 11
3.13555120180001
 21
1.89566930380001
 31
0.0
  0
LINE
  8
3
  6
CONTINUOUS
 62
3
 10
1.76602363370001
 20
1.89566930380001
 30
0.0
 11
1.76602363370001
 21
1.34448819780001
 31
0.0
  0
ARC
  8
3
  6
CONTINUOUS
 62
3
 10
3.25366143880001
 20
1.34448819780001
 30
0.0
 40
0.118110237000009
 50
179.999999999999
 51
269.999999999999
  0
ARC
  8
3
  6
CONTINUOUS
 62
3
 10
1.64791339670001
 20
1.89566930380001
 30
0.0
 40
0.118110237
 50
359.999999999999
 51
89.9999999999994
  0
ARC
  8
3
  6
CONTINUOUS
 62
3
 10
1.64791339670001
 20
1.34448819780001
 30
0.0
 40
0.118110237000006
 50
269.999999999999
 51
359.999999999999
  0
ARC
  8
3
  6
CONTINUOUS
 62
3
 10
3.25366143880001
 20
0.817204729800006
 30
0.0
 40
0.0590551184999981
 50
89.9999999999998
 51
180
  0
ARC
  8
3
  6
CONTINUOUS
 62
3
 10
1.64791339670001
 20
0.817204729800007
 30
0.0
 40
0.0590551185000017
 50
359.999999999999
 51
89.9999999999998
  0
ARC
  8
3
  6
CONTINUOUS
 62
3
 10
1.64791339670001
 20
2.42295277190001
 30
0.0
 40
0.0590551185000017
 50
269.999999999999
 51
359.999999999999
  0
ARC
  8
3
  6
CONTINUOUS
 62
3
 10
3.25366143880001
 20
2.42295277190001
 30
0.0
 40
0.0590551184999981
 50
179.999999999999
 51
269.999999999999
  0
ENDSEC
  0
EOF
