  0
SECTION
  2
HEADER
  9
$ACADVER
  1
AC1003
  9
$EXTMIN
 10
5.4678483962789E-15
 20
2.83464568800002
  9
$EXTMAX
 10
2.83464568800002
 20
5.44009282066327E-15
  9
$INSUNITS
 70
1
  9
$INSBASE
 10
1.41732284400001
 20
1.41732284400001
999
Created with OMAX LAYOUT for Windows. (www.omax.com) 06/04/2019
  0
ENDSEC
  0
SECTION
  2
TABLES
  0
TABLE
  2
LAYER
 70
    10
  0
LAYER
  2
0
 70
     0
 62
     7
  6
CONTINUOUS
  0
LAYER
  2
1
 70
     0
 62
     7
  6
CONTINUOUS
  0
LAYER
  2
2
 70
     0
 62
     7
  6
CONTINUOUS
  0
LAYER
  2
3
 70
     0
 62
     7
  6
CONTINUOUS
  0
LAYER
  2
4
 70
     0
 62
     7
  6
CONTINUOUS
  0
LAYER
  2
5
 70
     0
 62
     7
  6
CONTINUOUS
  0
LAYER
  2
6
 70
     0
 62
     7
  6
CONTINUOUS
  0
LAYER
  2
7
 70
     0
 62
     7
  6
CONTINUOUS
  0
LAYER
  2
8
 70
     0
 62
     7
  6
CONTINUOUS
  0
LAYER
  2
9
 70
     0
 62
     7
  6
CONTINUOUS
  0
LAYER
  2
10
 70
     0
 62
     7
  6
CONTINUOUS
  0
LAYER
  2
11
 70
     0
 62
     7
  6
CONTINUOUS
  0
LAYER
  2
12
 70
     0
 62
     7
  6
CONTINUOUS
  0
LAYER
  2
13
 70
     0
 62
     7
  6
CONTINUOUS
  0
LAYER
  2
14
 70
     0
 62
     7
  6
CONTINUOUS
  0
LAYER
  2
15
 70
     0
 62
     7
  6
CONTINUOUS
  0
LAYER
  2
16
 70
     0
 62
     7
  6
CONTINUOUS
  0
LAYER
  2
17
 70
     0
 62
     7
  6
CONTINUOUS
  0
LAYER
  2
18
 70
     0
 62
     7
  6
CONTINUOUS
  0
LAYER
  2
19
 70
     0
 62
     7
  6
CONTINUOUS
  0
LAYER
  2
20
 70
     0
 62
     7
  6
CONTINUOUS
  0
LAYER
  2
21
 70
     0
 62
     7
  6
CONTINUOUS
  0
LAYER
  2
22
 70
     0
 62
     7
  6
CONTINUOUS
  0
LAYER
  2
23
 70
     0
 62
     7
  6
CONTINUOUS
  0
LAYER
  2
24
 70
     0
 62
     7
  6
CONTINUOUS
  0
LAYER
  2
25
 70
     0
 62
     7
  6
CONTINUOUS
  0
LAYER
  2
26
 70
     0
 62
     7
  6
CONTINUOUS
  0
LAYER
  2
27
 70
     0
 62
     7
  6
CONTINUOUS
  0
LAYER
  2
28
 70
     0
 62
     7
  6
CONTINUOUS
  0
LAYER
  2
29
 70
     0
 62
     7
  6
CONTINUOUS
  0
LAYER
  2
30
 70
     0
 62
     7
  6
CONTINUOUS
  0
LAYER
  2
31
 70
     0
 62
     7
  6
CONTINUOUS
  0
ENDTAB
  0
ENDSEC
  0
SECTION
  2
ENTITIES
  0
ARC
  8
3
  6
CONTINUOUS
 62
3
 10
0.236220474000005
 20
0.236220474000005
 30
0.0
 40
0.236220474
 50
134.999999999999
 51
314.999999999999
  0
LINE
  8
3
  6
CONTINUOUS
 62
3
 10
0.0691873555432636
 20
0.403253571921326
 30
0.0
 11
0.201626779799255
 21
0.535692996177318
 31
0.0
  0
ARC
  8
3
  6
CONTINUOUS
 62
3
 10
0.11811023700001
 20
0.619209534059234
 30
0.0
 40
0.118110236999998
 50
315.000000000002
 51
1.89879114483372E-12
  0
ARC
  8
3
  6
CONTINUOUS
 62
3
 10
0.118110237000009
 20
2.21543615393685
 30
0.0
 40
0.118110236999998
 50
359.999999999997
 51
44.9999999999977
  0
LINE
  8
3
  6
CONTINUOUS
 62
3
 10
0.201626779799255
 20
2.29895269182271
 30
0.0
 11
0.0691873555432636
 21
2.4313921160787
 31
0.0
  0
ARC
  8
3
  6
CONTINUOUS
 62
3
 10
0.236220474000006
 20
2.59842521400002
 30
0.0
 40
0.236220474
 50
44.9999999999998
 51
225
  0
LINE
  8
3
  6
CONTINUOUS
 62
3
 10
0.403253571921326
 20
2.76545833245282
 30
0.0
 11
0.535692996177318
 21
2.63301890819683
 31
0.0
  0
ARC
  8
3
  6
CONTINUOUS
 62
3
 10
0.619209534059234
 20
2.71653545100001
 30
0.0
 40
0.118110236999998
 50
225.000000000002
 51
270.000000000002
  0
ARC
  8
3
  6
CONTINUOUS
 62
3
 10
2.21543615393685
 20
2.71653545100001
 30
0.0
 40
0.118110236999998
 50
269.999999999997
 51
314.999999999997
  0
LINE
  8
3
  6
CONTINUOUS
 62
3
 10
2.29895269181877
 20
2.63301890819683
 30
0.0
 11
2.43139211607476
 21
2.76545833245282
 31
0.0
  0
ARC
  8
3
  6
CONTINUOUS
 62
3
 10
2.59842521400002
 20
2.59842521400002
 30
0.0
 40
0.236220474
 50
314.999999999999
 51
135
  0
LINE
  8
3
  6
CONTINUOUS
 62
3
 10
2.76545833245282
 20
2.4313921160787
 30
0.0
 11
2.63301890819683
 21
2.29895269182271
 31
0.0
  0
ARC
  8
3
  6
CONTINUOUS
 62
3
 10
2.71653545100001
 20
2.21543615393685
 30
0.0
 40
0.118110236999998
 50
135.000000000002
 51
180.000000000002
  0
ARC
  8
3
  6
CONTINUOUS
 62
3
 10
2.71653545100001
 20
0.619209534059232
 30
0.0
 40
0.118110236999998
 50
179.999999999997
 51
224.999999999997
  0
LINE
  8
3
  6
CONTINUOUS
 62
3
 10
2.63301890819683
 20
0.535692996177318
 30
0.0
 11
2.76545833245282
 21
0.403253571921326
 31
0.0
  0
ARC
  8
3
  6
CONTINUOUS
 62
3
 10
2.59842521400002
 20
0.236220474000005
 30
0.0
 40
0.236220474
 50
224.999999999999
 51
44.9999999999998
  0
LINE
  8
3
  6
CONTINUOUS
 62
3
 10
2.43139211607476
 20
0.0691873555432636
 30
0.0
 11
2.29895269181877
 21
0.201626779799255
 31
0.0
  0
ARC
  8
3
  6
CONTINUOUS
 62
3
 10
2.21543615393685
 20
0.118110237000009
 30
0.0
 40
0.118110236999998
 50
45.0000000000019
 51
90.0000000000019
  0
ARC
  8
3
  6
CONTINUOUS
 62
3
 10
0.619209534059233
 20
0.118110237000009
 30
0.0
 40
0.118110236999998
 50
89.9999999999977
 51
134.999999999998
  0
LINE
  8
3
  6
CONTINUOUS
 62
3
 10
0.535692996177318
 20
0.201626779799255
 30
0.0
 11
0.403253571921326
 21
0.0691873555432636
 31
0.0
  0
ARC
  8
3
  6
CONTINUOUS
 62
3
 10
2.59842521400001
 20
0.236220474000007
 30
0.0
 40
0.0795000005246962
 50
359.999999999999
 51
180
  0
ARC
  8
3
  6
CONTINUOUS
 62
3
 10
2.59842521400001
 20
0.236220474000006
 30
0.0
 40
0.0795000005246962
 50
179.999999999999
 51
359.999999999999
  0
ARC
  8
3
  6
CONTINUOUS
 62
3
 10
0.236220474000014
 20
0.236220474000007
 30
0.0
 40
0.0795000005246962
 50
359.999999999999
 51
180
  0
ARC
  8
3
  6
CONTINUOUS
 62
3
 10
0.236220474000014
 20
0.236220474000006
 30
0.0
 40
0.0795000005246962
 50
179.999999999999
 51
359.999999999999
  0
ARC
  8
3
  6
CONTINUOUS
 62
3
 10
0.236220474000014
 20
2.59842521400002
 30
0.0
 40
0.0795000005246962
 50
359.999999999999
 51
180
  0
ARC
  8
3
  6
CONTINUOUS
 62
3
 10
0.236220474000014
 20
2.59842521400002
 30
0.0
 40
0.0795000005246962
 50
179.999999999999
 51
359.999999999999
  0
ARC
  8
3
  6
CONTINUOUS
 62
3
 10
2.59842521400001
 20
2.59842521400002
 30
0.0
 40
0.0795000005246962
 50
359.999999999999
 51
180
  0
ARC
  8
3
  6
CONTINUOUS
 62
3
 10
2.59842521400001
 20
2.59842521400002
 30
0.0
 40
0.0795000005246962
 50
179.999999999999
 51
359.999999999999
  0
LINE
  8
3
  6
CONTINUOUS
 62
3
 10
2.2154361560589
 20
0.23622050039765
 30
0.0
 11
0.619209531937187
 21
0.23622050039765
 31
0.0
  0
LINE
  8
3
  6
CONTINUOUS
 62
3
 10
0.23622050039765
 20
0.619209531937187
 30
0.0
 11
0.23622050039765
 21
2.2154361560589
 31
0.0
  0
LINE
  8
3
  6
CONTINUOUS
 62
3
 10
0.619209531937187
 20
2.59842518759844
 30
0.0
 11
2.2154361560589
 21
2.59842518759844
 31
0.0
  0
LINE
  8
3
  6
CONTINUOUS
 62
3
 10
2.59842518759844
 20
2.2154361560589
 30
0.0
 11
2.59842518759844
 21
0.619209531937187
 31
0.0
  0
ENDSEC
  0
EOF
